<svg width="24" height="24" viewBox="0 0 24 24" fill="none" xmlns="http://www.w3.org/2000/svg">
<g id="icons-user-profile">
<path id="Shape" fill-rule="evenodd" clip-rule="evenodd" d="M12 19.2C9.95124 19.2 8.09725 18.3404 6.78474 16.9734C6.22025 16.3854 5.94019 15.485 6.47641 14.8712C7.59543 13.5902 10.4158 12.9 12 12.9C13.5842 12.9 16.4046 13.5902 17.5236 14.8712C18.0598 15.485 17.7797 16.3854 17.2153 16.9734C15.9028 18.3404 14.0488 19.2 12 19.2ZM12 5C13.6569 5 15 6.34315 15 8C15 9.65685 13.6569 11 12 11C10.3431 11 9 9.65685 9 8C9 6.34315 10.3431 5 12 5ZM12 2C6.47715 2 2 6.47715 2 12C2 14.6522 3.05357 17.1957 4.92893 19.0711C6.8043 20.9464 9.34784 22 12 22C14.6522 22 17.1957 20.9464 19.0711 19.0711C20.9464 17.1957 22 14.6522 22 12C22 6.47 17.5 2 12 2Z" fill="url(#paint0_linear_41_91)"/>
</g>
<defs>
<linearGradient id="paint0_linear_41_91" x1="-8" y1="12" x2="12" y2="32" gradientUnits="userSpaceOnUse">
<stop stop-color="#258CBF"/>
<stop offset="1" stop-color="#4ED3BE"/>
</linearGradient>
</defs>
</svg>
