<svg width="64" height="80" viewBox="0 0 64 80" fill="none" xmlns="http://www.w3.org/2000/svg">
<g id="eloking-logo">
<g id="logo">
<g id="bg">
<g id="stroke">
<path id="Vector" d="M46.5431 48.5436C46.3883 49.7197 46.1907 50.8546 45.9556 51.9493C45.6419 53.4092 45.261 54.7978 44.8242 56.1179C44.6057 56.7781 44.3732 57.4211 44.1282 58.0472C44.0057 58.3604 43.8801 58.6692 43.7514 58.974C43.6227 59.2787 43.4911 59.5793 43.3566 59.876C43.0879 60.4689 42.8078 61.0455 42.518 61.6059C42.2282 62.1663 41.9285 62.7107 41.6204 63.2394C41.3124 63.768 40.9959 64.2809 40.6725 64.7784C40.1874 65.5245 39.6863 66.2361 39.1743 66.9141C39.0038 67.14 38.8318 67.3622 38.6589 67.5809C38.486 67.7994 38.3122 68.0144 38.1372 68.2256C37.7874 68.6481 37.4343 69.0561 37.079 69.4499C36.546 70.0404 36.0084 70.5992 35.4706 71.1268C34.933 71.6546 34.3952 72.1515 33.8623 72.6187C33.5071 72.9301 33.1538 73.2284 32.804 73.5137C32.2795 73.9418 31.7628 74.341 31.2588 74.7123C31.0907 74.8361 30.9242 74.9568 30.7591 75.0745C30.4289 75.3097 30.1051 75.5329 29.789 75.7441C29.473 75.9554 29.1645 76.1547 28.8652 76.3427C28.7156 76.4367 28.5683 76.5277 28.4234 76.6159C28.1334 76.7925 27.8535 76.9576 27.5846 77.1117C27.3157 77.266 27.0582 77.4091 26.813 77.5416C25.8328 78.0717 25.0543 78.4312 24.5671 78.6421C24.4452 78.6948 24.3417 78.7381 24.2577 78.7728C24.0896 78.8416 24 78.8748 24 78.8748C24 78.8748 23.9104 78.8416 23.7423 78.7728C23.6583 78.7381 23.5546 78.6948 23.4329 78.6421C22.8238 78.3786 21.7597 77.8826 20.4154 77.1117C20.1465 76.9576 19.8666 76.7925 19.5766 76.6159C19.4317 76.5277 19.2844 76.4367 19.1348 76.3427C18.8355 76.1547 18.527 75.9554 18.211 75.7441C17.8949 75.5329 17.5711 75.3097 17.2409 75.0745C16.5808 74.6038 15.8953 74.0845 15.196 73.5137C14.8462 73.2284 14.4931 72.9301 14.1378 72.6187C13.6048 72.1515 13.067 71.6546 12.5294 71.1268C11.9916 70.5992 11.454 70.0404 10.921 69.4499C10.5657 69.0561 10.2126 68.6481 9.86281 68.2256C9.51306 67.8032 9.16685 67.366 8.8255 66.9141C8.31365 66.2361 7.81264 65.5245 7.3275 64.7784C7.00408 64.2809 6.68756 63.768 6.37963 63.2394C6.22558 62.9751 6.07357 62.7068 5.924 62.4347C5.77442 62.1624 5.6269 61.8862 5.48199 61.6059C5.19218 61.0455 4.91208 60.4689 4.64337 59.876C4.50892 59.5793 4.37727 59.2787 4.24861 58.974C4.11995 58.6692 3.99428 58.3604 3.87178 58.0472C3.62678 57.4211 3.39429 56.7781 3.17581 56.1179C3.06657 55.7879 2.96088 55.4537 2.85892 55.115C2.55267 54.0989 2.27967 53.0442 2.04457 51.9493C1.80928 50.8546 1.6119 49.7197 1.45691 48.5436C1.19866 46.5834 1.05879 44.509 1.05879 42.3149V15.2759C2.13495 14.3826 4.16159 12.787 6.70885 10.9547C6.82462 10.8715 6.94152 10.7878 7.05935 10.7035C7.84719 10.1408 8.68171 9.55812 9.54984 8.96869C9.63332 8.91211 9.71678 8.85553 9.80082 8.79877C9.97709 8.67966 10.1549 8.56054 10.3338 8.44106C10.5556 8.29309 10.7793 8.14476 11.0049 7.99661C11.2288 7.8494 11.454 7.70218 11.6811 7.55534C11.8181 7.46674 11.9556 7.37815 12.0936 7.28975C12.285 7.1671 12.4777 7.04482 12.6711 6.92292C12.8422 6.81497 13.0138 6.70721 13.1861 6.59982C13.3269 6.51216 13.4683 6.42469 13.6098 6.3374C14.0873 6.04353 14.5685 5.75281 15.0526 5.46694C15.2787 5.3335 15.5056 5.20135 15.7328 5.07014C16.0809 4.86933 16.4296 4.67093 16.7789 4.47644C19.2328 3.11035 21.706 1.91922 24 1.11799C26.294 1.91922 28.7672 3.11035 31.2211 4.47644C31.6541 4.71745 32.0866 4.96406 32.5174 5.21476C32.6608 5.29832 32.8042 5.38244 32.9474 5.46694C33.5202 5.80493 34.0891 6.14998 34.6518 6.49895C34.9332 6.67334 35.2131 6.84884 35.491 7.02509C35.9079 7.28938 36.3206 7.55515 36.7279 7.82129C37.1354 8.08744 37.5374 8.35377 37.9331 8.61935C38.1968 8.79635 38.4576 8.97316 38.7153 9.14904C40.004 10.0288 41.2135 10.8903 42.3031 11.6899C43.7197 12.7293 44.934 13.664 45.8574 14.3979C45.9284 14.4542 45.9976 14.5095 46.0652 14.5635C46.403 14.8335 46.6966 15.0729 46.9412 15.2759V42.3149C46.9412 44.509 46.8012 46.5834 46.5431 48.5436ZM48 14.7816L47.6187 14.4652C45.7394 12.9054 42.1249 10.139 38.1232 7.47605C32.7848 3.92386 28.1509 1.44965 24.3501 0.12228L24 0L23.6499 0.12228C19.8491 1.44965 15.2152 3.92386 9.87682 7.47605C5.87507 10.139 2.26062 12.9054 0.381315 14.4652L0.000188058 14.7816V15.2759L0 42.3149C0 48.8719 1.23768 54.9264 3.6785 60.3104C5.63531 64.6265 8.36333 68.5186 11.7866 71.8787C17.6166 77.601 23.3892 79.7744 23.6321 79.8641L24 80L24.3679 79.8641C24.6108 79.7744 30.3834 77.601 36.2134 71.8787C39.6369 68.5186 42.3647 64.6265 44.3215 60.3104C46.7623 54.9264 48 48.8719 48 42.3149V14.7816Z" fill="#4D5871"/>
</g>
<g id="bg_2">
<path id="Vector_2" d="M41.1184 24.7827C41.1184 24.7833 41.1184 24.7838 41.1182 24.7846C41.1182 24.7844 41.118 24.7842 41.1178 24.7842L41.1176 24.7844L41.1174 24.7852L41.1161 24.7827C38.4404 22.5652 35.0343 20.9275 30.903 20.0718C30.5659 20.002 30.2235 19.938 29.8767 19.8788L26.5631 20.8844V20.8846L23.9829 23.2879L21.403 20.8844L18.0894 19.8788C17.7426 19.938 17.4001 20.002 17.0631 20.0718C12.9317 20.9275 9.52551 22.5652 6.84977 24.7829L6.84865 24.7852L6.84828 24.7842C6.84809 24.7842 6.84791 24.7844 6.84772 24.7846V24.7827L3.37406 16.0819L8.01127 15.5392L8.16346 16.9147L8.37615 18.8341V18.8339L8.37652 18.8377C10.4282 17.3648 12.9426 16.2319 15.9879 15.5267C16.7849 15.3422 17.6194 15.188 18.4899 15.0633C18.4946 15.0627 18.4993 15.0618 18.5041 15.0612L18.0246 13.0018L21.4028 11.9765H21.403L23.9829 9.57306L26.5631 11.9765L29.9415 13.0018L29.462 15.0612C29.4666 15.0618 29.4713 15.0625 29.476 15.0633C30.3465 15.188 31.181 15.3422 31.978 15.5267C35.0233 16.2319 37.5379 17.3648 39.5894 18.8377L39.9548 15.5392L44.592 16.0819L41.1184 24.7827ZM40.8048 59.4055C41.0747 54.9989 40.6289 54.4442 39.5907 48.8578C39.4381 48.0372 39.3453 47.2637 39.2986 46.5317C39.2497 45.7594 39.2536 45.0346 39.299 44.3535C39.3018 44.3136 39.3039 44.2732 39.3068 44.2338C39.3091 44.2029 39.3113 44.1718 39.3139 44.1411C39.3453 43.749 39.3899 43.3713 39.4463 43.0078C39.6441 41.7318 39.9802 40.6289 40.3509 39.6665C40.679 38.8151 41.034 38.0732 41.3445 37.4194C40.8386 40.5134 40.6362 44.3105 41.7155 48.9983C42.9075 54.1755 41.7155 57.7178 40.8048 59.4055ZM38.3048 64.682C38.5937 62.2086 38.3018 61.8834 37.7235 58.7083C37.6365 58.23 37.5907 57.7813 37.5775 57.3586C37.5271 55.7439 37.9603 54.5176 38.4611 53.5548C38.7057 53.0847 38.9662 52.6773 39.1941 52.3179C38.7748 54.0456 38.5465 56.1777 39.1741 58.8481C39.8672 61.7973 38.9679 63.7578 38.3048 64.682ZM35.9105 31.1698C35.3572 31.6396 34.8243 32.436 31.32 32.3747C33.1849 31.7825 34.6399 30.8633 35.1727 30.4957C35.7055 30.1281 36.4022 29.7196 36.5661 29.883C36.7301 30.0464 36.4638 30.6999 35.9105 31.1698ZM11.4323 29.883C11.5962 29.7196 12.2929 30.1281 12.8257 30.4957C13.3584 30.8633 14.8135 31.7825 16.6784 32.3747C13.1741 32.436 12.6412 31.6396 12.0879 31.1698C11.5346 30.6999 11.2683 30.0464 11.4323 29.883ZM35.6067 48.4443C35.6627 48.5397 35.7154 48.6356 35.766 48.7318C34.9234 48.3408 34.1417 48.0575 33.4398 47.8526C32.8187 47.6711 32.2598 47.5502 31.7793 47.4713C30.5717 47.273 29.8535 47.3345 29.8535 47.3345C29.8535 47.3345 30.8268 47.6522 32.1349 48.2539C32.6811 48.5053 33.285 48.8063 33.9018 49.1547C34.7826 49.6521 35.6872 50.2457 36.4827 50.9296C36.618 51.8848 36.5312 52.8029 36.2881 53.6039C35.4142 52.6804 34.5527 51.9429 33.7468 51.3555C33.2137 50.9669 32.7059 50.6453 32.2337 50.3773C30.4007 49.3369 29.1193 49.1234 29.1193 49.1234C29.1193 49.1234 30.4354 49.9576 31.9213 51.2717C32.3347 51.6374 32.7612 52.0404 33.1763 52.4729C33.9348 53.2631 34.6549 54.152 35.1856 55.0932C35.2392 55.1881 35.2896 55.2773 35.3417 55.3692C35.0179 55.7388 34.6461 56.0201 34.2458 56.1822C34.0374 56.2665 33.8049 56.3318 33.5558 56.3796C32.9321 55.3352 32.2832 54.4681 31.6565 53.7508C31.2974 53.3396 30.9463 52.9784 30.6113 52.6624C29.1008 51.2371 27.927 50.7296 27.927 50.7296C27.927 50.7296 28.7639 51.6064 29.7327 52.9334C29.9899 53.2855 30.2558 53.6685 30.5183 54.0761C30.9829 54.7979 31.4344 55.5948 31.8018 56.4221C29.8873 56.1935 27.7234 55.1096 26.7515 52.9045C25.3084 49.6307 25.9562 47.7661 27.843 46.1938C28.1246 45.9593 28.5259 45.7087 29.0097 45.5113C30.6505 44.7477 33.8125 43.2827 31.7715 39.4095C31.3386 41.2409 30.117 41.5487 29.7837 41.5993C29.8057 41.5701 29.8242 41.5444 29.845 41.5165C29.8393 41.5208 29.8337 41.5253 29.8281 41.5295C29.7973 41.5535 29.7661 41.5774 29.7335 41.6001C29.6916 41.1227 29.355 40.7302 28.9032 40.6092L28.9034 40.6088C28.8905 40.6055 28.8732 40.601 28.8528 40.5964C28.8448 40.5945 28.837 40.5926 28.8289 40.5911C28.5214 40.523 27.5487 40.3829 26.1244 40.8865C24.8798 41.3263 24.5904 41.3438 23.9996 41.3438C23.4087 41.3438 23.1193 41.3263 21.8749 40.8865C20.4503 40.3829 19.478 40.523 19.1702 40.5911C19.1622 40.5926 19.1542 40.5947 19.1461 40.5964C19.126 40.6012 19.1086 40.6055 19.0959 40.6088V40.6092C18.644 40.7302 18.3073 41.1229 18.2657 41.6006C18.2326 41.5777 18.2012 41.5537 18.1702 41.5295C18.1646 41.5253 18.159 41.5208 18.1534 41.5165C18.1742 41.5444 18.1927 41.5701 18.2147 41.5993C17.8814 41.5487 16.6599 41.2409 16.2269 39.4095C14.1859 43.2827 17.3479 44.7477 18.9887 45.5113C19.4725 45.7087 19.8738 45.9593 20.1554 46.1938C22.0422 47.7661 22.69 49.6307 21.2469 52.9045C20.2749 55.1096 18.111 56.1935 16.1966 56.4221C16.5639 55.5948 17.0155 54.7979 17.4801 54.0761C17.7426 53.6685 18.0085 53.2855 18.2657 52.9334C19.2345 51.6064 20.0714 50.7296 20.0714 50.7296C20.0714 50.7296 18.8976 51.2371 17.3871 52.6624C17.0521 52.9784 16.701 53.3396 16.3419 53.7508C15.7152 54.4681 15.0663 55.3352 14.4424 56.3796C14.1935 56.3318 13.961 56.2665 13.7526 56.1822C13.3523 56.0201 12.9805 55.7388 12.6567 55.3692C12.7088 55.2773 12.7594 55.1881 12.8128 55.0932C13.3435 54.152 14.0636 53.2631 14.8221 52.4729C15.2372 52.0404 15.6637 51.6374 16.0771 51.2717C17.563 49.9576 18.8791 49.1234 18.8791 49.1234C18.8791 49.1234 17.5977 49.3369 15.7647 50.3773C15.2925 50.6453 14.7847 50.9669 14.2516 51.3555C13.4456 51.9429 12.5842 52.6804 11.7103 53.6039C11.4672 52.8029 11.3805 51.8848 11.5157 50.9296C12.3112 50.2457 13.2158 49.6521 14.0966 49.1547C14.7136 48.8063 15.3173 48.5053 15.8635 48.2539C17.1714 47.6522 18.1448 47.3345 18.1448 47.3345C18.1448 47.3345 17.4267 47.273 16.219 47.4713C15.7386 47.5502 15.1797 47.6711 14.5586 47.8526C13.8567 48.0575 13.075 48.3408 12.2324 48.7318C12.283 48.6356 12.3357 48.5397 12.3917 48.4443C13.1405 47.1683 13.9607 46.3436 14.7834 45.8362C12.5699 46.3588 12.1828 47.1573 10.7862 48.7599C11.3236 45.7763 12.4263 42.5104 9.0075 38.0538C9.5847 38.355 10.0711 38.6877 10.4822 39.0349C10.7974 39.3012 11.0668 39.5761 11.2989 39.8519C12.4759 41.2505 12.6679 42.6734 12.6985 43.1227C12.7049 43.2165 12.7043 43.2678 12.7043 43.2678C12.7043 43.2678 12.8787 41.3561 11.6233 38.3667C10.3677 35.3773 8.74159 35.8421 7.7039 33.9102C7.45218 33.4415 7.3056 32.9461 7.24248 32.4494C7.23744 32.411 7.23426 32.3725 7.23034 32.3342C7.21988 32.2296 7.21279 32.1255 7.20961 32.0213C7.2027 31.8022 7.21092 31.5847 7.23426 31.3703C7.29719 30.7918 7.46339 30.2391 7.70539 29.7527C7.88279 29.3965 8.09829 29.0747 8.34478 28.8078C8.52629 30.1246 8.72198 31.1782 9.53074 32.2837C9.4073 31.1782 9.52476 30.3392 9.80972 29.7462C10.6467 32.1099 11.6929 32.8398 13.2623 33.57C11.937 34.1261 11.4692 34.2191 10.7369 34.2191C12.2358 35.2459 15.6667 34.4393 17.0974 33.9874L17.0988 33.987C17.5869 35.2731 17.0638 36.9762 16.6803 37.5673C17.7962 37.0806 18.424 35.3773 18.6332 34.578C18.641 34.6338 18.6481 34.682 18.6554 34.7311C18.7463 33.7924 18.7538 32.8227 18.737 32.0468C18.7051 30.5837 18.8797 29.7881 19.4453 29.3368C19.5289 29.2701 19.6206 29.2108 19.7218 29.1583C19.7243 29.157 19.7263 29.1555 19.7287 29.1542C19.6985 29.1553 19.6718 29.1594 19.6425 29.1613C18.2487 29.2541 18.0095 30.2556 16.6061 30.3991C15.1733 30.5456 13.961 29.7034 12.3814 28.605C10.8017 27.5065 9.08929 27.2672 8.52404 27.1771C8.87081 26.6444 9.25213 26.1589 9.65996 25.7152C10.0314 25.3111 10.425 24.9419 10.8371 24.6067C11.1649 24.3403 11.504 24.0954 11.8522 23.87C14.2172 22.3394 17.0011 21.7288 19.4716 21.6849C19.181 21.8161 18.9202 21.9422 18.681 22.0643C18.0597 22.3817 17.6011 22.6681 17.2608 22.9197C16.7806 23.2752 16.5326 23.5624 16.3858 23.7718C19.323 22.6746 22.5942 22.9663 22.5942 22.9663L23.9992 24.5774L25.4042 22.9663C25.4042 22.9663 28.6754 22.6746 31.6126 23.7718C31.4658 23.5624 31.2178 23.2752 30.7375 22.9197C30.3973 22.6681 29.9387 22.3817 29.3174 22.0643C29.0784 21.9422 28.8172 21.8161 28.5268 21.6849C30.9975 21.7288 33.7815 22.3394 36.1467 23.8704C36.4948 24.0956 36.8339 24.3407 37.1616 24.607C37.5758 24.9437 37.9713 25.315 38.3444 25.7215C38.75 26.1635 39.1293 26.6469 39.4743 27.1771C38.9091 27.2672 37.1967 27.5065 35.6169 28.605C34.0374 29.7034 32.8251 30.5456 31.3922 30.3991C29.9988 30.2567 29.7527 29.2683 28.3847 29.1637C28.3462 29.1607 28.31 29.1557 28.2696 29.1542C29.062 29.5622 29.2982 30.3625 29.2616 32.0468C29.2446 32.8227 29.2521 33.7924 29.343 34.7311C29.3503 34.682 29.3574 34.6338 29.3652 34.578C29.5744 35.3773 30.2022 37.0806 31.3181 37.5673C30.9346 36.9762 30.4115 35.2731 30.8996 33.987C30.9002 33.987 30.9006 33.9872 30.9009 33.9874C32.3317 34.4393 35.7626 35.2459 37.2615 34.2191C36.5292 34.2191 36.0614 34.1261 34.7361 33.57C36.3054 32.8398 37.3517 32.1099 38.1887 29.7462C38.4736 30.3392 38.5911 31.1782 38.4677 32.2837C39.2764 31.1782 39.4721 30.1246 39.6536 28.8078C39.9001 29.0747 40.1156 29.3965 40.293 29.7527C40.535 30.2391 40.7012 30.7918 40.7641 31.3703C40.7875 31.5847 40.7957 31.8022 40.7888 32.0213C40.7856 32.1255 40.7785 32.2296 40.768 32.3342C40.7641 32.3725 40.761 32.411 40.7561 32.4494C40.6928 32.9461 40.5462 33.4415 40.2945 33.9102C39.2568 35.8421 37.6307 35.3773 36.3751 38.3667C35.1197 41.3561 35.2941 43.2678 35.2941 43.2678C35.2941 43.2678 35.2935 43.2165 35.2999 43.1227C35.3305 42.6734 35.5225 41.2505 36.6995 39.8519C36.9316 39.5761 37.201 39.3012 37.5162 39.0349C37.9272 38.6877 38.4137 38.355 38.9909 38.0538C35.5721 42.5104 36.6748 45.7763 37.2122 48.7599C35.8156 47.1573 35.4285 46.3588 33.215 45.8362C34.0379 46.3436 34.8579 47.1683 35.6067 48.4443ZM36.1949 63.9045C36.6371 66.4285 35.8039 68.02 35.2129 68.7552C35.5632 66.6934 35.3357 66.4016 34.9989 63.6945C34.8928 62.8436 34.9283 62.1099 35.0493 61.4717C35.1974 60.6908 35.4739 60.0535 35.777 59.5192C36.0197 59.0913 36.2795 58.7292 36.5041 58.4139C36.0791 59.8401 35.7943 61.6188 36.1949 63.9045ZM28.8704 41.7687C28.8315 41.9122 28.684 41.9972 28.5397 41.9596C28.5279 41.9567 27.7931 41.7802 26.5935 42.2044C25.2711 42.6717 24.83 42.7423 23.9996 42.7423C23.1692 42.7423 22.7281 42.6717 21.4058 42.2044C20.2023 41.7793 19.4669 41.9578 19.4593 41.9596C19.3153 41.9959 19.167 41.9105 19.1291 41.7666C19.0914 41.6231 19.176 41.4761 19.32 41.4376C19.3556 41.4279 20.2092 41.2083 21.5869 41.6952C22.9036 42.1605 23.2747 42.202 23.9996 42.202C24.7245 42.202 25.0957 42.1605 26.4122 41.6952C27.7899 41.2085 28.6437 41.4279 28.6792 41.4376C28.8237 41.4763 28.9094 41.6246 28.8704 41.7687ZM30.5163 67.1008C30.9667 63.2858 29.4855 62.67 29.4855 62.67C29.8916 64.808 29.7899 68.4427 27.9983 70.892C28.0756 69.6854 27.1487 68.8465 27.1487 68.8465C27.1487 68.8465 27.1519 68.8644 27.1569 68.8972C27.1621 68.9007 27.1681 68.9033 27.1731 68.9076C27.327 69.0396 27.316 69.5335 27.2209 69.6889C27.2624 71.1587 26.9565 74.2199 24.0052 76.1393C21.0421 74.1257 20.7287 71.175 20.7765 69.7218C20.7735 69.7187 20.7702 69.7161 20.7672 69.7122C20.669 69.5782 20.6953 69.0664 20.8198 68.9186C20.8303 68.9061 20.8419 68.8974 20.8536 68.8903C20.8585 68.8627 20.8617 68.8465 20.8617 68.8465C20.8617 68.8465 19.9347 69.6854 20.0118 70.892C18.2205 68.4427 18.1187 64.808 18.5249 62.67C18.5249 62.67 17.0437 63.2858 17.4939 67.1008C14.0826 61.8566 16.8758 56.8207 24.0052 56.8207C31.1344 56.8207 33.9277 61.8566 30.5163 67.1008ZM12.9995 63.6945C12.6627 66.4016 12.4352 66.6934 12.7855 68.7552C12.1945 68.02 11.3613 66.4285 11.8035 63.9045C12.204 61.6188 11.9193 59.8401 11.4943 58.4139C11.7189 58.7292 11.9787 59.0913 12.2212 59.5192C12.5245 60.0535 12.8012 60.6908 12.9493 61.4719C13.0701 62.1101 13.1056 62.8436 12.9995 63.6945ZM10.4209 57.3586C10.4076 57.7813 10.3619 58.23 10.2749 58.7083C9.69656 61.8834 9.40469 62.2086 9.69357 64.682C9.03047 63.7578 8.13115 61.7973 8.82432 58.8481C9.45193 56.1777 9.22356 54.0456 8.80434 52.3179C9.03215 52.6773 9.29265 53.0847 9.53727 53.5548C10.0381 54.5176 10.4713 55.7439 10.4209 57.3586ZM7.19355 59.4055C6.28284 57.7178 5.09091 54.1755 6.28284 48.9983C7.36218 44.3105 7.15975 40.5134 6.65389 37.4194C6.96443 38.0732 7.31941 38.8151 7.64751 39.6665C8.01818 40.6291 8.3543 41.7318 8.55206 43.0078C8.60845 43.3713 8.65308 43.749 8.68464 44.1411C8.68706 44.1718 8.68931 44.2029 8.69155 44.2338C8.69453 44.2732 8.69659 44.3136 8.69939 44.3535C8.74477 45.0346 8.74869 45.7594 8.69976 46.5317C8.65308 47.2637 8.56027 48.0372 8.40771 48.8578C7.36946 54.4442 6.92372 54.9989 7.19355 59.4055ZM8.85961 12.1346H10.5361L10.6706 11.7223L11.0541 10.5455L11.2326 11.0931L11.5723 12.1346H13.2486L12.8143 12.4491L11.8924 13.1167L12.2834 14.316L12.4106 14.7057L12.0083 14.4145L11.0541 13.7236L9.69805 14.7057L10.2161 13.1167L8.85961 12.1346ZM14.4307 8.49266H16.3188L16.4581 8.06515L16.9021 6.70298L17.4857 8.49266H19.3736L17.8461 9.59855L18.2645 10.8826L18.2786 10.9252L18.4294 11.3882L16.9021 10.2822L15.3746 11.3882L15.9582 9.59855L15.1849 9.03872L14.4307 8.49266ZM23.1992 5.25203L23.9992 2.7981L24.7992 5.25203H27.3879L25.2935 6.76867L25.9319 8.72716L26.0932 9.22241L23.9992 7.70595L21.9046 9.22241L22.7047 6.76867L20.6105 5.25203H23.1992ZM28.5923 8.49266H30.4804L31.0638 6.70298H31.064L31.508 8.06515L31.6473 8.49266H33.5354L32.964 8.9062L32.7812 9.03872L32.0079 9.59855L32.5915 11.3882L31.064 10.2822L29.5367 11.3882L30.1198 9.59855L28.5923 8.49266ZM34.7173 12.1346H36.3938L36.7333 11.0931L36.9118 10.5455L37.2955 11.7223L37.43 12.1346H39.1063L37.75 13.1167L37.9117 13.6129L38.268 14.7057L36.9118 13.7236L36.114 14.3011L35.5555 14.7057L36.0735 13.1167L35.3845 12.6175L34.7173 12.1346ZM46.9404 18.187V15.276C46.6958 15.0729 46.4022 14.8336 46.0644 14.5635C45.9968 14.5094 45.9276 14.4543 45.8566 14.3977C44.9332 13.664 43.7188 12.7292 42.3023 11.6899C41.2127 10.8904 40.0032 10.0289 38.7145 9.14909C38.4568 8.97302 38.196 8.7964 37.9323 8.6194C37.5366 8.35381 37.1345 8.0873 36.7271 7.82115C36.3198 7.55501 35.9071 7.28924 35.4902 7.02496C35.2123 6.84889 34.9324 6.67338 34.651 6.49881C34.0883 6.14984 33.5193 5.80497 32.9466 5.46699C32.8034 5.38249 32.66 5.29837 32.5166 5.2148C32.0858 4.96392 31.6533 4.7175 31.2203 4.4763C28.7666 3.11022 26.2932 1.91908 23.9992 1.11804C21.7051 1.91908 19.232 3.11022 16.7781 4.4763C16.4287 4.67079 16.0801 4.86918 15.732 5.07019C15.5048 5.2014 15.2779 5.33336 15.0518 5.46699C14.5677 5.75268 14.0865 6.04357 13.609 6.33745C13.4675 6.42455 13.3261 6.51202 13.1853 6.59987C13.013 6.70725 12.8414 6.81483 12.6703 6.92278C12.4769 7.04487 12.2842 7.16714 12.0927 7.28979C11.9548 7.37801 11.8173 7.46661 11.6803 7.5552C11.4532 7.70204 11.228 7.84926 11.0041 7.99647C10.7785 8.14481 10.5548 8.29296 10.333 8.4411C10.1541 8.5604 9.97629 8.6797 9.80001 8.79882C9.71598 8.8554 9.63251 8.91197 9.54904 8.96855C8.6809 9.55798 7.84638 10.1407 7.05854 10.7035C6.94071 10.7876 6.82382 10.8714 6.70804 10.9548C4.16078 12.7869 2.13414 14.3826 1.05798 15.276V42.3148C1.05798 44.9479 1.25947 47.4085 1.6251 49.7059C1.68598 50.0888 1.75133 50.4671 1.82117 50.841C2.10053 52.3367 2.44991 53.7603 2.85811 55.1148C3.06222 55.7923 3.28088 56.4522 3.513 57.0953C3.62915 57.4169 3.74847 57.734 3.87097 58.0472C3.99347 58.3603 4.11914 58.6692 4.2478 58.9739C4.50512 59.5834 4.77421 60.1764 5.05394 60.753C5.33367 61.3297 5.62386 61.8901 5.92319 62.4345C6.07277 62.7068 6.22477 62.975 6.37883 63.2393C6.84081 64.0323 7.32184 64.7898 7.81706 65.513C8.14703 65.9951 8.48352 66.462 8.82488 66.9139C9.16604 67.366 9.51225 67.803 9.86201 68.2257C10.2118 68.6481 10.5649 69.0561 10.9202 69.4497C11.2756 69.8436 11.633 70.2231 11.991 70.5888C12.3491 70.9543 12.708 71.3061 13.066 71.6442C13.4242 71.9824 13.7816 72.3072 14.1369 72.6185C14.4923 72.9301 14.8454 73.2283 15.1952 73.5138C15.8945 74.0844 16.58 74.6038 17.2401 75.0743C17.5703 75.3096 17.8941 75.5327 18.2102 75.744C18.5262 75.9552 18.8346 76.1547 19.134 76.3425C19.4333 76.5305 19.7235 76.7069 20.0031 76.8722C20.1429 76.9548 20.2802 77.0347 20.4146 77.1117C21.7589 77.8824 22.8229 78.3784 23.4321 78.642C23.5538 78.6948 23.6575 78.7382 23.7415 78.7726C23.9096 78.8415 23.9992 78.8746 23.9992 78.8746C23.9992 78.8746 24.0888 78.8415 24.2569 78.7726C24.3409 78.7382 24.4444 78.6948 24.5663 78.642C25.0535 78.4311 25.832 78.0715 26.8122 77.5415C27.0574 77.409 27.3149 77.2658 27.5838 77.1117C27.7182 77.0347 27.8555 76.9548 27.9953 76.8722C28.2749 76.7069 28.5653 76.5305 28.8644 76.3425C29.1637 76.1547 29.4722 75.9552 29.7882 75.744C30.1043 75.5327 30.4281 75.3096 30.7583 75.0743C30.9234 74.9567 31.0899 74.8359 31.258 74.7121C31.762 74.3408 32.2787 73.9418 32.8032 73.5138C33.153 73.2283 33.5063 72.9301 33.8614 72.6185C34.2168 72.3072 34.5742 71.9824 34.9324 71.6442C35.4694 71.1369 36.0082 70.5992 36.5437 70.0299C36.9009 69.6502 37.2565 69.2566 37.6094 68.8484C37.9622 68.4404 38.3123 68.018 38.6581 67.5808C38.831 67.3623 39.003 67.1401 39.1735 66.9139C40.0269 65.784 40.8495 64.5609 41.6196 63.2393C42.3897 61.9177 43.1073 60.4978 43.7506 58.9739C45.6803 54.4025 46.9404 48.8973 46.9404 42.3148V18.187Z" fill="#05063A"/>
</g>
</g>
<g id="face">
<g id="Group 974">
<g id="Group">
<path id="Vector_3" d="M27.0782 61.8772C27.2996 60.0006 26.7013 59.6977 26.7013 59.6977C26.9009 60.7494 26.6558 62.5372 25.7745 63.7421C25.8125 63.1486 25.5518 62.736 25.5518 62.736C25.5518 62.736 25.4522 64.2469 24.0056 65.4856C22.5588 64.2469 22.4592 62.736 22.4592 62.736C22.4592 62.736 22.1986 63.1486 22.2367 63.7421C21.3555 62.5372 21.1101 60.7494 21.3099 59.6977C21.3099 59.6977 20.7114 60.0006 20.9329 61.8772C19.3073 59.3783 20.4238 56.9755 23.6833 56.8278C18.7385 56.9778 17.0226 60.5696 19.4552 64.3092C19.1271 61.53 20.0134 61.0814 20.0134 61.0814C19.7176 62.6388 20.0808 65.2865 21.3859 67.0708C21.3297 66.1918 21.7157 65.5807 21.7157 65.5807C21.7157 65.5807 22.2462 68.301 24.0056 68.301C25.7648 68.301 26.2954 65.5807 26.2954 65.5807C26.2954 65.5807 26.6815 66.1918 26.6251 67.0708C27.9302 65.2865 28.2936 62.6388 27.9976 61.0814C27.9976 61.0814 28.8839 61.53 28.5558 64.3092C30.9884 60.5696 29.2727 56.9778 24.3279 56.8278C27.5872 56.9755 28.7037 59.3783 27.0782 61.8772Z" fill="#B5BABC"/>
</g>
<g id="Group_2">
<path id="Vector_4" d="M23.0932 70.5901C23.0379 70.01 24.0047 70.0736 24.0047 70.0736C24.0047 70.0736 24.9714 70.01 24.9161 70.5901C24.817 71.632 24.0047 71.9508 24.0047 71.9508C24.0047 71.9508 23.1924 71.632 23.0932 70.5901ZM25.8868 70.7347C26.0007 69.5369 24.0047 69.6685 24.0047 69.6685C24.0047 69.6685 22.0086 69.5369 22.1226 70.7347C22.3274 72.886 24.0047 73.5445 24.0047 73.5445C24.0047 73.5445 25.6821 72.886 25.8868 70.7347Z" fill="#B5BABC"/>
</g>
<g id="Group_3">
<path id="Vector_5" d="M24.9143 70.5903C24.9696 70.0102 24.0028 70.0738 24.0028 70.0738C24.0028 70.0738 23.0361 70.0102 23.0914 70.5903C23.1905 71.6322 24.0028 71.951 24.0028 71.951C24.0028 71.951 24.8151 71.6322 24.9143 70.5903Z" fill="white"/>
</g>
<g id="Group_4">
<path id="Vector_6" d="M20.7279 69.6033C20.704 69.4918 20.7047 69.3249 20.7283 69.1793C20.7324 69.1546 20.7376 69.1311 20.743 69.108C20.7594 69.0364 20.782 68.9746 20.8112 68.9338C20.7953 68.9737 20.7865 69.0202 20.782 69.0779C20.8039 69.0626 20.8287 69.0468 20.8592 69.0312C20.8592 69.0312 22.0294 68.4215 23.9971 68.4215C25.9645 68.4215 27.1348 69.0312 27.1348 69.0312C27.1647 69.0455 27.1897 69.0593 27.2104 69.0723C27.2054 69.0105 27.1949 68.9616 27.1759 68.9203C27.2164 68.9608 27.2437 69.0295 27.2608 69.1103C27.2653 69.1313 27.2694 69.1522 27.2724 69.1745C27.289 69.2983 27.2849 69.4378 27.2633 69.5456C27.2399 69.6621 27.2 69.7315 27.1563 69.7315C27.1497 69.7315 27.143 69.7302 27.1363 69.7272C27.1243 69.7226 25.9425 69.2668 23.9963 69.2668C22.0503 69.2668 20.8683 69.7226 20.8567 69.7272C20.8427 69.7353 20.8302 69.7392 20.8186 69.7392C20.7789 69.7392 20.7467 69.691 20.7279 69.6033ZM20.8582 69.7321C20.8582 69.7321 22.0285 69.2722 23.9961 69.2722C25.9638 69.2722 27.1339 69.7321 27.1339 69.7321C27.165 69.7457 27.1925 69.7293 27.2153 69.6945C27.2164 69.6928 27.2171 69.6898 27.2183 69.6882C27.3131 69.5328 27.3241 69.0388 27.1703 68.907C27.1652 68.9026 27.1594 68.9 27.154 68.8964C27.1473 68.8918 27.1411 68.8864 27.1339 68.8832C27.1339 68.8832 25.9638 68.3524 23.9961 68.3524C22.0285 68.3524 20.8582 68.8832 20.8582 68.8832C20.8556 68.8845 20.8534 68.8879 20.8509 68.8895C20.839 68.8966 20.8276 68.9054 20.8171 68.9178C20.6926 69.0656 20.6661 69.5774 20.7645 69.7114C20.7673 69.7153 20.7707 69.7179 20.7736 69.7213C20.7962 69.7451 20.8241 69.7522 20.8582 69.7321Z" fill="#FBC333"/>
</g>
<g id="Group_5">
<path id="Vector_7" d="M27.138 69.1417C27.138 69.1417 25.9677 68.6135 24.0003 68.6135C22.0326 68.6135 20.8624 69.1417 20.8624 69.1417C20.8291 69.1568 20.8034 69.1657 20.781 69.1721C20.78 69.2292 20.7806 69.294 20.7811 69.371C20.7836 69.6267 20.8919 69.5551 20.8919 69.5551C20.8919 69.5551 22.0508 68.9921 23.9993 68.9921C25.9477 68.9921 27.1068 69.5551 27.1068 69.5551C27.1068 69.5551 27.2151 69.6267 27.2175 69.371C27.2181 69.2934 27.2187 69.2283 27.2177 69.1709C27.1948 69.1655 27.169 69.1572 27.138 69.1417Z" fill="#FBC333"/>
</g>
<g id="Group_6">
<path id="Vector_8" d="M20.8126 68.9345C20.7836 68.9752 20.7613 69.0369 20.7448 69.1083C20.7553 69.0988 20.7689 69.0888 20.7836 69.0784C20.7881 69.0207 20.7968 68.9741 20.8126 68.9345Z" fill="#E3A500"/>
</g>
<g id="Group_7">
<path id="Vector_9" d="M27.1763 68.9208C27.1952 68.962 27.2054 69.0109 27.2106 69.0728C27.2322 69.0864 27.2484 69.099 27.2608 69.1107C27.2437 69.0301 27.2164 68.9615 27.1763 68.9208Z" fill="#E3A500"/>
</g>
<g id="Group_8">
<path id="Vector_10" d="M20.8211 69.7402C20.8327 69.7402 20.8452 69.7363 20.8592 69.7283C20.8708 69.7236 22.0528 69.2673 23.9988 69.2673C25.9447 69.2673 27.1268 69.7236 27.1387 69.7283C27.1454 69.7313 27.1522 69.7326 27.1585 69.7326C27.2022 69.7326 27.2424 69.6631 27.2657 69.5464C27.2872 69.4385 27.2915 69.2988 27.2748 69.1749C27.2622 69.1788 27.2416 69.1769 27.2171 69.1711C27.2181 69.2285 27.2175 69.2938 27.217 69.3715C27.2145 69.6275 27.1062 69.5558 27.1062 69.5558C27.1062 69.5558 25.9473 68.9921 23.9988 68.9921C22.0504 68.9921 20.8913 69.5558 20.8913 69.5558C20.8913 69.5558 20.783 69.6275 20.7806 69.3715C20.78 69.2943 20.7794 69.2295 20.7804 69.1723C20.7587 69.1784 20.7427 69.1805 20.7307 69.1797C20.707 69.3254 20.7062 69.4926 20.7303 69.6042C20.749 69.692 20.7813 69.7402 20.8211 69.7402Z" fill="#E3A500"/>
</g>
<g id="Group_9">
<path id="Vector_11" d="M20.8598 69.1427C20.8598 69.1427 22.0301 68.6138 23.9975 68.6138C25.9651 68.6138 27.1354 69.1427 27.1354 69.1427C27.1664 69.1581 27.1922 69.1665 27.215 69.1719C27.2396 69.1777 27.2601 69.1796 27.2727 69.1756C27.2697 69.1533 27.2656 69.1324 27.2611 69.1115C27.2486 69.0998 27.2323 69.0871 27.2107 69.0733C27.1899 69.0603 27.1651 69.0465 27.135 69.0322C27.135 69.0322 25.965 68.4217 23.9973 68.4217C22.0297 68.4217 20.8594 69.0322 20.8594 69.0322C20.829 69.048 20.8041 69.0637 20.7823 69.0789C20.7675 69.0894 20.7539 69.0996 20.7433 69.1091C20.7379 69.1324 20.7326 69.1557 20.7285 69.1805C20.7405 69.1814 20.7565 69.1794 20.7784 69.173C20.8006 69.1667 20.8266 69.1578 20.8598 69.1427Z" fill="#FEE749"/>
</g>
</g>
<g id="Group_10">
<path id="Vector_12" d="M11.6977 46.9092C12.5041 45.6749 12.7493 44.3821 12.697 43.1709C12.7028 43.8225 12.5946 44.4849 12.3082 45.1141C12.4886 43.1456 12.3285 41.5264 11.2968 39.8519C11.0647 39.5761 10.7953 39.3012 10.48 39.0349C11.8912 41.1486 12.2566 44.3138 11.6977 46.9092Z" fill="#B5BABC"/>
</g>
<g id="Group_11">
<path id="Vector_13" d="M8.68359 44.1405C8.68362 44.1712 8.68366 44.203 8.68368 44.2331C8.68365 44.2022 8.68362 44.1712 8.68359 44.1405Z" fill="#B5BABC"/>
</g>
<g id="Group_12">
<path id="Vector_14" d="M39.3052 44.2332C39.3052 44.2031 39.3052 44.1713 39.3053 44.1406C39.3052 44.1713 39.3052 44.2023 39.3052 44.2332Z" fill="#B5BABC"/>
</g>
<g id="Group_13">
<path id="Union" fill-rule="evenodd" clip-rule="evenodd" d="M27.8379 33.7535C27.7425 34.3053 27.6486 34.8477 27.7147 35.4409C27.7971 36.1799 28.0198 36.4458 28.3994 36.8988C28.6208 37.1629 28.8954 37.4906 29.2265 38.0128C29.163 37.4685 28.9594 37.0431 28.7626 36.6319C28.5589 36.2066 28.3626 35.7964 28.3364 35.2857C28.3224 35.0147 28.3631 34.6694 28.4077 34.2914C28.5283 33.2685 28.6772 32.0061 27.8471 31.329C28.0977 32.2521 27.9663 33.0114 27.8379 33.7535ZM19.5783 27.1085C20.5859 27.7668 22.6273 28.3936 23.9968 28.3936C25.3665 28.3936 27.4077 27.7668 28.4155 27.1085C29.4233 26.4504 31.413 26.043 32.2399 26.0743C32.2126 26.0391 32.1766 26.0052 32.1359 25.9721C32.1447 25.9721 32.1536 25.9721 32.1625 25.972C32.1893 25.9719 32.2159 25.9718 32.2399 25.9726C31.8524 25.5604 30.0435 25.3287 28.6482 25.6635C27.2527 25.9983 25.4698 26.1528 23.9968 26.1528C22.524 26.1528 20.7411 25.9983 19.3456 25.6635C17.9503 25.3287 16.1414 25.5604 15.7539 25.9726C15.7779 25.9718 15.8045 25.9719 15.8313 25.972C15.8402 25.9721 15.8491 25.9721 15.8579 25.9721C15.8172 26.0052 15.7812 26.0391 15.7539 26.0743C16.5808 26.043 18.5705 26.4504 19.5783 27.1085ZM19.5944 36.8988C19.974 36.4458 20.1968 36.1799 20.2791 35.4409C20.3452 34.8477 20.2513 34.3054 20.1558 33.7536C20.0274 33.0115 19.896 32.2522 20.1467 31.329C19.3165 32.0061 19.4654 33.2685 19.5861 34.2914C19.6307 34.6694 19.6714 35.0147 19.6575 35.2857C19.6312 35.7964 19.4349 36.2066 19.2313 36.6319C19.0344 37.0431 18.8308 37.4685 18.7673 38.0128C19.0984 37.4906 19.3731 37.1629 19.5944 36.8988ZM13.6692 26.8038C13.6692 26.8038 14.6326 28.1018 15.7743 28.4751C16.916 28.8487 19.2173 28.6886 19.2173 28.6886C19.2173 28.6886 17.1836 28.4737 15.917 27.9765C14.6503 27.4796 13.6692 26.8038 13.6692 26.8038ZM28.7765 28.6886C28.7765 28.6886 31.0778 28.8487 32.2195 28.4751C33.3612 28.1018 34.3246 26.8038 34.3246 26.8038C34.3246 26.8038 33.3435 27.4796 32.0769 27.9765C30.8102 28.4737 28.7765 28.6886 28.7765 28.6886ZM29.3408 34.7308C29.4471 35.83 29.6682 36.887 30.1042 37.5388C30.7719 38.5371 31.112 40.5095 29.8428 41.516L29.8259 41.5292C31.0549 39.6298 29.4857 38.3255 28.2605 37.6132C27.0202 36.892 26.9685 34.9862 27.0977 32.694C27.227 30.402 25.1081 29.8096 23.9968 29.8096C22.8857 29.8096 20.7668 30.402 20.8961 32.694C21.0253 34.9862 20.9736 36.892 19.7333 37.6132C18.5079 38.3255 16.939 39.6298 18.1679 41.5292L18.1511 41.516C16.8818 40.5095 17.2219 38.5371 17.8896 37.5388C18.3257 36.887 18.5466 35.83 18.653 34.7308C18.7439 33.7919 18.7516 32.8222 18.7346 32.0465C18.7027 30.5833 18.8775 29.7878 19.4431 29.3365C19.666 29.2023 19.8154 29.1539 19.8154 29.1539C19.8154 29.1539 19.7827 29.1554 19.7194 29.1578L19.7265 29.1539C19.7083 29.1546 19.6914 29.1562 19.6745 29.1579C19.6632 29.159 19.6518 29.1602 19.6401 29.161C19.3185 29.1731 18.5501 29.1982 17.3158 29.2172C15.6361 29.2431 14.6542 28.8051 13.233 27.3629C12.0127 26.1245 11.2282 25.7607 9.65757 25.7149C10.029 25.3106 10.4226 24.9414 10.8349 24.6064C11.6273 24.1591 13.4819 23.3763 17.2586 22.9194C16.7784 23.2749 16.5304 23.5621 16.3834 23.7715C19.3208 22.6743 22.592 22.966 22.592 22.966L23.9968 24.577L25.4018 22.966C25.4018 22.966 28.673 22.6743 31.6104 23.7715C31.4634 23.5621 31.2154 23.2749 30.7352 22.9194C34.5126 23.3763 36.3671 24.1595 37.1592 24.6066C37.5736 24.9434 37.9691 25.3145 38.342 25.7212C36.8846 25.789 36.1137 26.1707 34.9388 27.3629C33.5175 28.8051 32.5357 29.2431 30.856 29.2172C29.1765 29.1915 28.3563 29.1539 28.3563 29.1539C28.3563 29.1539 28.3672 29.1576 28.3825 29.1632C28.3676 29.1621 28.3531 29.1607 28.3386 29.1593C28.3154 29.1571 28.2922 29.1548 28.2673 29.1539C29.0596 29.5619 29.296 30.3622 29.2592 32.0465C29.2422 32.8222 29.2499 33.7919 29.3408 34.7308ZM40.7563 32.449C40.5022 34.4344 38.399 36.0512 35.5186 36.0512C33.4649 36.0512 31.7648 35.1886 30.9012 33.987C32.332 34.4389 35.7628 35.2455 37.2618 34.2187C36.5294 34.2187 36.0616 34.1257 34.7364 33.5694C36.3057 32.8394 37.352 32.1095 38.1889 29.7458C38.4739 30.3388 38.5913 31.1778 38.4679 32.2833C39.2766 31.1778 39.4723 30.124 39.6539 28.8073C39.9003 29.0743 40.1158 29.3961 40.2932 29.7523C40.4665 31.1895 40.5885 32.215 39.5954 33.2673C39.8876 33.1173 40.722 32.628 40.7644 31.3697C40.7877 31.5843 40.7959 31.8018 40.789 32.0209L40.7839 32.115L40.7782 32.2191C40.7764 32.2489 40.7736 32.2786 40.7707 32.3081L40.7683 32.3336L40.7648 32.3688V32.3688C40.7623 32.3955 40.7597 32.4222 40.7563 32.449ZM17.0965 33.9871C16.2328 35.1887 14.5328 36.0513 12.479 36.0513C9.59865 36.0513 7.49544 34.4346 7.24148 32.4491C7.23787 32.4215 7.23521 32.3939 7.23255 32.3663L7.23255 32.3663L7.22935 32.3337L7.22691 32.3082C7.22406 32.2787 7.22119 32.249 7.21945 32.2192L7.20862 32.021C7.20171 31.802 7.20993 31.5844 7.23327 31.3698C7.27566 32.6281 8.11018 33.1174 8.40223 33.2674C7.40936 32.2151 7.53111 31.1896 7.70459 29.7525C7.8818 29.3962 8.09729 29.0744 8.34378 28.8074C8.52529 30.1241 8.72099 31.1779 9.52974 32.2834C9.40631 31.1779 9.52377 30.3389 9.80872 29.746C10.6457 32.1096 11.692 32.8396 13.2613 33.5695C11.936 34.1258 11.4682 34.2189 10.7359 34.2189C12.235 35.2456 15.6657 34.439 17.0965 33.9871ZM6.75266 56.4799C6.20888 55.0913 5.71478 52.0816 6.92819 48.2724C7.86448 45.3331 8.12852 44.348 7.64563 39.6667C8.0163 40.6292 8.35242 41.7322 8.55017 43.0082C8.51777 42.9919 8.52238 43.0447 8.53348 43.172C8.56737 43.5606 8.66175 44.643 7.94982 46.5721C6.47367 50.5724 6.36593 52.289 6.51644 54.2916C6.65776 51.6814 7.23719 50.2176 7.80718 48.7776C7.93912 48.4442 8.07056 48.1122 8.19594 47.7675C8.5541 46.7826 8.79256 45.9639 8.69732 44.3538C8.74288 45.0348 8.74681 45.7597 8.69769 46.5321C8.57445 47.5228 8.36362 48.4381 8.08483 49.1555L7.98851 49.403C7.23926 51.3253 6.546 53.104 6.75266 56.4799ZM9.24951 58.421C8.50929 60.6004 8.91862 62.281 9.32365 63.0472C9.10225 61.152 9.53463 60.1306 10.0021 59.0264L10.0618 58.8851C10.2387 58.4658 10.3606 57.9317 10.4203 57.3588C10.471 55.7441 10.0377 54.5178 9.53671 53.555C9.97797 56.177 9.82055 56.7392 9.24951 58.421ZM12.4182 67.4039C12.0989 66.7852 11.7409 65.3977 12.1852 63.518C12.5218 62.0934 12.6141 61.5986 12.2218 59.5193C12.525 60.0536 12.8018 60.6909 12.9497 61.472C13.038 62.3281 12.9737 63.2293 12.784 63.8569L12.7467 63.9797C12.4556 64.9378 12.1863 65.8242 12.4182 67.4039ZM38.6734 63.0471C39.0784 62.2809 39.4875 60.6002 38.7475 58.4208C38.1763 56.7391 38.019 56.1769 38.4601 53.5549C37.9593 54.5176 37.526 55.744 37.5765 57.3587C37.6364 57.9315 37.7583 58.4657 37.9352 58.885L37.9953 59.0273C38.4625 60.1311 38.8947 61.1524 38.6734 63.0471ZM35.2512 63.9792L35.2141 63.8568C35.0242 63.2292 34.96 62.3279 35.0483 61.4718C35.1964 60.6908 35.4729 60.0536 35.7762 59.5192C35.384 61.5985 35.4763 62.0934 35.813 63.5179C36.257 65.3977 35.8991 66.785 35.5797 67.4038C35.8117 65.8237 35.5424 64.9374 35.2512 63.9792ZM41.2415 56.4797C41.7855 55.0913 42.2794 52.0815 41.0662 48.2723C40.1299 45.3331 39.8658 44.348 40.3487 39.6667C39.9779 40.6291 39.6418 41.732 39.4442 43.008C39.4766 42.9917 39.472 43.0445 39.4609 43.1718C39.4269 43.5603 39.3324 44.6427 40.0444 46.5719C41.5207 50.5723 41.6284 52.289 41.4777 54.2916C41.3364 51.6816 40.7572 50.2179 40.1873 48.7782L40.1873 48.7781L40.1873 48.7781L40.1873 48.778L40.1872 48.7779L40.1872 48.7779L40.1872 48.7778L40.1872 48.7777L40.1872 48.7777L40.1871 48.7776C40.0552 48.4443 39.9238 48.1122 39.7984 47.7675C39.4401 46.7824 39.2016 45.9639 39.2969 44.3536C39.2515 45.0348 39.2474 45.7595 39.2965 46.5319C39.4199 47.5228 39.6307 48.4381 39.9094 49.1554L40.0051 49.4014L40.0052 49.4014C40.7548 51.3243 41.4482 53.1032 41.2415 56.4797ZM14.0938 49.1549C14.7107 48.8064 15.3146 48.5054 15.8608 48.2542C15.7361 48.6413 15.6651 49.0606 15.6651 49.5009C15.6651 49.8043 15.701 50.0971 15.7619 50.3775C15.2898 50.6455 14.7821 50.9671 14.2489 51.3558C14.1018 50.9176 14.0213 50.4458 14.0213 49.9536C14.0213 49.6803 14.0467 49.4135 14.0938 49.1549ZM16.0749 51.2715C15.6614 51.6371 15.235 52.04 14.8198 52.4727C15.2151 53.0248 15.7372 53.4669 16.3397 53.7503C16.6988 53.3392 17.0499 52.9781 17.3848 52.662C16.8368 52.3741 16.3802 51.8841 16.0749 51.2715ZM16.2167 47.4703C15.7363 47.5493 15.1776 47.6702 14.5563 47.8517C15.2067 46.6701 16.3885 45.864 17.7506 45.8091L17.7627 45.8086H17.7628H17.7628H17.7628H17.7628C17.808 45.8069 17.8533 45.8052 17.899 45.8052C18.1304 45.8052 18.3567 45.8281 18.5769 45.8696C20.3948 46.2128 21.7762 47.9096 21.7762 49.9526C21.7762 52.2431 20.0403 54.0999 17.899 54.0999C17.7566 54.0999 17.6163 54.0912 17.478 54.0752C17.7403 53.6676 18.0064 53.2846 18.2634 52.9324C18.3498 52.9419 18.437 52.9485 18.5257 52.9485C20.1053 52.9485 21.3858 51.4044 21.3858 49.4997C21.3858 47.595 20.1053 46.051 18.5257 46.051C17.576 46.051 16.737 46.6114 16.2167 47.4703ZM32.2338 50.3775C32.7061 50.6455 33.2138 50.9671 33.7469 51.3556C33.8939 50.9176 33.9746 50.4458 33.9746 49.9536C33.9746 49.6803 33.9492 49.4135 33.9019 49.1549C33.2849 48.8064 32.6812 48.5054 32.1348 48.2542C32.2596 48.6413 32.3307 49.0606 32.3307 49.5009C32.3307 49.8043 32.2949 50.0971 32.2338 50.3775ZM26.6085 49.5008C26.6085 51.4055 27.889 52.9495 29.4686 52.9495C29.5571 52.9495 29.6445 52.943 29.7309 52.9335C29.9879 53.2856 30.254 53.6686 30.5164 54.0762C30.378 54.0922 30.2376 54.101 30.0953 54.101C27.954 54.101 26.2181 52.2441 26.2181 49.9536C26.2181 47.9106 27.5994 46.2138 29.4172 45.8706C29.6376 45.8291 29.8639 45.8062 30.0953 45.8062C30.1451 45.8062 30.1942 45.8081 30.2435 45.8101C31.6058 45.865 32.7874 46.6711 33.438 47.8527C32.8168 47.6713 32.258 47.5503 31.7776 47.4714C31.2573 46.6125 30.4181 46.0521 29.4686 46.0521C27.889 46.0521 26.6085 47.5961 26.6085 49.5008ZM30.6096 52.6623C30.9445 52.9783 31.2957 53.3396 31.6547 53.7508C32.2571 53.4672 32.7791 53.025 33.1743 52.4729C32.7592 52.0403 32.333 51.6375 31.9195 51.2718C31.6142 51.8845 31.1576 52.3743 30.6096 52.6623ZM35.6883 45.1141C35.4019 44.4849 35.2937 43.8225 35.2995 43.1709C35.2472 44.3821 35.4924 45.6749 36.2988 46.9092C35.7399 44.3138 36.1053 41.1484 37.5165 39.0349C37.2012 39.3012 36.9318 39.5761 36.6997 39.8519C35.668 41.5264 35.5079 43.1456 35.6883 45.1141Z" fill="#B5BABC"/>
</g>
<g id="Group_14">
<path id="Vector_15" d="M19.4688 21.6846C16.9983 21.7287 14.2144 22.3392 11.8494 23.8698C13.0809 23.2299 15.1995 22.4669 18.6782 22.0643C18.9172 21.942 19.1782 21.8158 19.4688 21.6846Z" fill="#B5BABC"/>
</g>
<g id="Group_15">
<path id="Vector_16" d="M28.5258 21.6844C28.8164 21.8156 29.0774 21.9418 29.3166 22.0641C32.7957 22.4668 34.9144 23.2299 36.1459 23.8699C33.7807 22.3391 30.9965 21.7285 28.5258 21.6844Z" fill="#B5BABC"/>
</g>
<g id="Group_16">
<path id="Vector_17" d="M24.0048 56.8209C24.1144 56.8209 24.2218 56.8233 24.3271 56.8281C29.2719 56.9781 30.9878 60.57 28.5552 64.3094C28.8831 61.5303 27.997 61.0818 27.997 61.0818C28.2928 62.6392 27.9294 65.2869 26.6245 67.0711C26.6807 66.1921 26.2947 65.5811 26.2947 65.5811C26.2947 65.5811 25.7642 68.3012 24.0048 68.3012C22.2454 68.3012 21.7149 65.5811 21.7149 65.5811C21.7149 65.5811 21.3289 66.1921 21.3851 67.0711C20.0802 65.2869 19.7168 62.6392 20.0126 61.0818C20.0126 61.0818 19.1265 61.5303 19.4544 64.3094C17.0218 60.57 18.7377 56.9781 23.6825 56.8281C23.7878 56.8233 23.8952 56.8209 24.0048 56.8209C16.8754 56.8209 14.0822 61.8568 17.4935 67.1009C17.0433 63.2859 18.5245 62.6701 18.5245 62.6701C18.1183 64.8082 18.2201 68.4428 20.0117 70.8921C19.9343 69.6855 20.8613 68.8467 20.8613 68.8467C20.8613 68.8467 20.8581 68.8629 20.8533 68.8904C20.8559 68.8887 20.8581 68.8854 20.8607 68.8841C20.8607 68.8841 22.031 68.3533 23.9986 68.3533C25.9661 68.3533 27.1364 68.8841 27.1364 68.8841C27.1436 68.8873 27.1498 68.8926 27.1565 68.8973C27.1515 68.8645 27.1483 68.8467 27.1483 68.8467C27.1483 68.8467 28.0753 69.6855 27.998 70.8921C29.7895 68.4428 29.8913 64.8082 29.4851 62.6701C29.4851 62.6701 30.9663 63.2859 30.5161 67.1009C33.9274 61.8568 31.134 56.8209 24.0048 56.8209Z" fill="#5C667D"/>
</g>
<g id="Group_17">
<path id="Vector_18" d="M25.8874 70.7348C25.6828 72.8861 24.0053 73.5444 24.0053 73.5444C24.0053 73.5444 22.3281 72.8861 22.1234 70.7348C22.0093 69.537 24.0053 69.6686 24.0053 69.6686C24.0053 69.6686 26.0013 69.537 25.8874 70.7348ZM27.2183 69.6948C27.1955 69.7298 27.1681 69.746 27.1369 69.7326C27.1369 69.7326 25.9668 69.2725 23.9992 69.2725C22.0315 69.2725 20.8613 69.7326 20.8613 69.7326C20.8271 69.7527 20.7993 69.7454 20.7767 69.7216C20.729 71.1746 21.0422 74.1255 24.0053 76.1389C26.9567 74.2195 27.2626 71.1582 27.2213 69.6885C27.2202 69.6903 27.2194 69.6931 27.2183 69.6948Z" fill="#5C667D"/>
</g>
<g id="Group_18">
<path id="Vector_19" d="M14.2499 51.3551C14.1028 50.9172 14.0223 50.4452 14.0223 49.9531C14.0223 49.6797 14.0477 49.4128 14.0947 49.1543C13.2141 49.6518 12.3096 50.2453 11.5141 50.9295C11.3787 51.8844 11.4655 52.8025 11.7086 53.6036C12.5826 52.6802 13.444 51.9425 14.2499 51.3551Z" fill="#5C667D"/>
</g>
<g id="Group_19">
<path id="Vector_20" d="M14.8213 52.4725C14.0627 53.2627 13.3427 54.1516 12.812 55.0928C12.7584 55.1877 12.7078 55.2769 12.6559 55.3688C12.9797 55.7384 13.3513 56.0196 13.7518 56.1817C13.96 56.2661 14.1925 56.3314 14.4416 56.3792C15.0653 55.3347 15.7144 54.4676 16.3409 53.7503C15.7385 53.4669 15.2166 53.0245 14.8213 52.4725Z" fill="#5C667D"/>
</g>
<g id="Group_20">
<path id="Vector_21" d="M7.2309 32.3333C7.22049 32.2291 7.21343 32.125 7.21027 32.0211C7.21398 32.0877 7.21751 32.1538 7.22123 32.219C7.22328 32.2573 7.22737 32.2952 7.2309 32.3333Z" fill="#5C667D"/>
</g>
<g id="Group_21">
<path id="Vector_22" d="M7.28196 32.6833C7.26784 32.6054 7.25222 32.5278 7.24219 32.4497C7.25222 32.5283 7.26616 32.606 7.28196 32.6833Z" fill="#5C667D"/>
</g>
<g id="Group_22">
<path id="Vector_23" d="M8.69867 46.531C8.57524 47.5219 8.36442 48.4372 8.08581 49.1545C7.30096 51.1751 6.53814 52.9589 6.75364 56.4789C6.20968 55.0904 5.71576 52.0806 6.92917 48.2714C7.86546 45.3322 8.12932 44.3471 7.64642 39.6658C7.31851 38.8143 6.96334 38.0725 6.6528 37.4186C7.15885 40.5126 7.36109 44.3097 6.28176 48.9976C5.08982 54.1747 6.28176 57.7171 7.19246 59.4048C6.92263 54.9981 7.36837 54.4435 8.40681 48.8571C8.55918 48.0365 8.65218 47.263 8.69867 46.531Z" fill="#5C667D"/>
</g>
<g id="Group_23">
<path id="Vector_24" d="M9.32136 63.0473C8.91633 62.2811 8.50719 60.6005 9.24723 58.4211C9.81845 56.7393 9.97568 56.1771 9.53461 53.5551C9.28999 53.085 9.02949 52.6776 8.80167 52.3182C9.2209 54.0459 9.44927 56.178 8.82165 58.8484C8.12849 61.7976 9.02781 63.7581 9.69091 64.6824C9.40203 62.2089 9.6939 61.8837 10.2722 58.7086C10.3592 58.2303 10.405 57.7816 10.4182 57.3589C10.3583 57.9318 10.2366 58.4659 10.0597 58.8852C9.57046 60.0455 9.09055 61.0715 9.32136 63.0473Z" fill="#5C667D"/>
</g>
<g id="Group_24">
<path id="Vector_25" d="M12.7834 63.8563C12.4788 64.863 12.1757 65.7562 12.4177 67.4033C12.0984 66.7845 11.7404 65.3972 12.1845 63.5174C12.5212 62.0929 12.6134 61.598 12.2213 59.5187C11.9785 59.0908 11.719 58.7287 11.4941 58.4134C11.9192 59.8396 12.2039 61.6183 11.8034 63.904C11.3612 66.4281 12.1944 68.0195 12.7854 68.7547C12.4351 66.6929 12.6625 66.4011 12.9996 63.694C13.1055 62.8433 13.0702 62.1096 12.9492 61.4714C13.0373 62.3274 12.9733 63.2287 12.7834 63.8563Z" fill="#5C667D"/>
</g>
<g id="Group_25">
<path id="Vector_26" d="M39.1931 52.3181C38.9651 52.6774 38.7048 53.0848 38.4602 53.555C38.0191 56.177 38.1763 56.7392 38.7474 58.4209C39.4876 60.6004 39.0783 62.281 38.6734 63.0472C38.904 61.0714 38.4243 60.0454 37.9351 58.8851C37.7582 58.4658 37.6363 57.9317 37.5765 57.3588C37.5898 57.7815 37.6355 58.2302 37.7226 58.7085C38.3009 61.8836 38.5928 62.2088 38.3039 64.6822C38.9668 63.758 39.8661 61.7974 39.1731 58.8483C38.5455 56.1779 38.7739 54.0458 39.1931 52.3181Z" fill="#5C667D"/>
</g>
<g id="Group_26">
<path id="Vector_27" d="M35.7746 59.5187C35.3825 61.598 35.4747 62.0929 35.8114 63.5174C36.2555 65.3972 35.8975 66.7845 35.5782 67.4033C35.82 65.7564 35.5171 64.863 35.2126 63.8563C35.0227 63.2287 34.9584 62.3274 35.0468 61.4714C34.9257 62.1094 34.8905 62.8431 34.9963 63.694C35.3334 66.4011 35.5606 66.6929 35.2105 68.7547C35.8013 68.0197 36.6347 66.4281 36.1924 63.904C35.792 61.6183 36.0768 59.8396 36.5018 58.4134C36.277 58.7289 36.0174 59.091 35.7746 59.5187Z" fill="#5C667D"/>
</g>
<g id="Group_27">
<path id="Vector_28" d="M41.7141 48.9979C40.6348 44.31 40.8372 40.5129 41.3431 37.4188C41.0325 38.0728 40.6775 38.8144 40.3494 39.6659C39.8665 44.3473 40.1306 45.3324 41.0669 48.2717C42.2803 52.0809 41.7862 55.0906 41.2422 56.4792C41.4579 52.959 40.6949 51.1754 39.91 49.1548C39.6314 48.4373 39.4206 47.522 39.2972 46.5313C39.3439 47.2633 39.4367 48.0366 39.5892 48.8572C40.6275 54.4438 41.0732 54.9984 40.8034 59.4051C41.7141 57.7174 42.906 54.1751 41.7141 48.9979Z" fill="#5C667D"/>
</g>
<g id="Group_28">
<path id="Vector_29" d="M35.3407 55.3688C35.2888 55.2769 35.2382 55.1877 35.1846 55.093C34.6539 54.1516 33.9338 53.2629 33.1753 52.4725C32.7798 53.0245 32.2579 53.4669 31.6555 53.7503C32.2821 54.4676 32.9312 55.3347 33.5549 56.3792C33.804 56.3316 34.0365 56.2661 34.2447 56.1817C34.6451 56.0196 35.0169 55.7386 35.3407 55.3688Z" fill="#5C667D"/>
</g>
<g id="Group_29">
<path id="Vector_30" d="M33.9029 49.1543C33.9502 49.4128 33.9756 49.6797 33.9756 49.9531C33.9756 50.4452 33.8949 50.9172 33.7477 51.3551C34.5539 51.9425 35.4151 52.6801 36.2892 53.6036C36.5323 52.8025 36.619 51.8844 36.4838 50.9293C35.6881 50.2453 34.7836 49.6518 33.9029 49.1543Z" fill="#5C667D"/>
</g>
<g id="Group_30">
<path id="Vector_31" d="M40.787 32.0211C40.7839 32.1252 40.7768 32.2291 40.7664 32.3333C40.7698 32.2954 40.774 32.2573 40.7761 32.219C40.7798 32.1538 40.7833 32.0878 40.787 32.0211Z" fill="#5C667D"/>
</g>
<g id="Group_31">
<path id="Vector_32" d="M40.7145 32.6832C40.7303 32.6057 40.7442 32.5278 40.7543 32.4492C40.7444 32.5273 40.7286 32.6053 40.7145 32.6832Z" fill="#5C667D"/>
</g>
<g id="Group_32">
<path id="Union_2" fill-rule="evenodd" clip-rule="evenodd" d="M16.6059 30.3989C17.2983 30.3281 17.7073 30.0484 18.1114 29.772C18.5263 29.4883 18.9361 29.208 19.6422 29.1611C19.3207 29.1732 18.5522 29.1985 17.3179 29.2173C15.6382 29.2431 14.6562 28.8052 13.2351 27.363C12.0148 26.1248 11.2303 25.7608 9.6597 25.715C9.25187 26.1587 8.87055 26.6441 8.52379 27.1769L8.58615 27.1868C9.2067 27.2845 10.8558 27.5441 12.3812 28.6048C13.9608 29.7032 15.1733 30.5454 16.6059 30.3989ZM37.5136 39.0345C37.9246 38.6872 38.4111 38.3545 38.9883 38.0535C35.9005 42.0785 36.5011 45.1325 37.0423 47.8843C37.1003 48.1793 37.1576 48.4708 37.2096 48.7596C37.0158 48.5372 36.8414 48.3302 36.6789 48.1374C35.6704 46.9406 35.1187 46.286 33.2124 45.8359C34.0353 46.3433 34.8553 47.1679 35.6041 48.4439C35.6601 48.5394 35.7127 48.6353 35.7633 48.7313C34.921 48.3405 34.1391 48.0572 33.4372 47.8523C32.7868 46.6706 31.6049 45.8646 30.2429 45.8097L30.2427 45.8097C30.1935 45.8076 30.1442 45.8056 30.0946 45.8056C29.8632 45.8056 29.6369 45.8286 29.4166 45.8701C27.5987 46.2133 26.2172 47.91 26.2172 49.9531C26.2172 52.2437 27.9533 54.1005 30.0946 54.1005C30.2369 54.1005 30.3773 54.0918 30.5157 54.0758C30.9803 54.7975 31.4318 55.5945 31.7991 56.4217C29.8847 56.193 27.7208 55.1093 26.7489 52.9042C25.3058 49.6302 25.9536 47.7657 27.8403 46.1934C28.1219 45.9589 28.5232 45.7084 29.0071 45.5109L29.0138 45.5078C30.6566 44.7433 33.8071 43.2771 31.7689 39.4092C31.336 41.2405 30.1144 41.5484 29.7811 41.599C29.7959 41.5794 29.8091 41.5614 29.8224 41.5431L29.8423 41.516C31.1118 40.5095 30.7717 38.537 30.1038 37.5387C29.6679 36.8869 29.4468 35.83 29.3404 34.7308C29.3477 34.6817 29.3548 34.6333 29.3626 34.5774C29.5718 35.377 30.1996 37.0803 31.3155 37.5668C30.9319 36.9759 30.4089 35.2728 30.897 33.9865L30.8983 33.9871C31.762 35.1886 33.462 36.0513 35.5157 36.0513C38.2818 36.0513 40.3302 34.5601 40.7135 32.6833C40.6375 33.101 40.504 33.5151 40.2919 33.9098C39.8451 34.7416 39.2893 35.1291 38.7009 35.5393C37.9227 36.0818 37.0876 36.664 36.3727 38.3664C35.1171 41.3557 35.2915 43.2675 35.2915 43.2675C35.2915 43.2675 35.2909 43.216 35.2973 43.1223L35.2967 43.1706C35.2444 44.3816 35.4896 45.6745 36.2959 46.9089C35.7372 44.3135 36.1025 41.148 37.5136 39.0345ZM12.3916 48.4443C13.1404 47.1683 13.9604 46.3436 14.7833 45.8363C12.877 46.2864 12.3253 46.941 11.3168 48.1378L11.3167 48.1378C11.1542 48.3307 10.9799 48.5376 10.7861 48.76C10.8381 48.4712 10.8954 48.1798 10.9534 47.8849C11.4946 45.133 12.0951 42.0791 9.00742 38.0539C9.58443 38.355 10.0711 38.6876 10.4821 39.0349C11.8932 41.1484 12.2585 44.3139 11.6998 46.9092C12.5061 45.6749 12.7513 44.3822 12.699 43.1709L12.6984 43.1227C12.7048 43.2165 12.7042 43.2679 12.7042 43.2679C12.7042 43.2679 12.8786 41.3561 11.623 38.3668C10.9081 36.6644 10.073 36.0822 9.29477 35.5397C8.70641 35.1295 8.15058 34.742 7.70381 33.9102C7.49168 33.5153 7.35798 33.1012 7.28217 32.6834C7.66535 34.5603 9.71384 36.0517 12.4799 36.0517C14.5337 36.0517 16.2335 35.189 17.0972 33.9875L17.0987 33.9871C17.5868 35.2732 17.0637 36.9763 16.68 37.5672C17.7961 37.0807 18.4239 35.3774 18.6331 34.578C18.6409 34.6337 18.648 34.6821 18.6553 34.7312C18.5489 35.8304 18.3278 36.8873 17.8917 37.5391C17.224 38.5374 16.8839 40.5099 18.1533 41.5164L18.1733 41.5435L18.1734 41.5437L18.1736 41.544C18.1868 41.562 18.1999 41.5799 18.2146 41.5994C17.8813 41.5488 16.6597 41.2409 16.2266 39.4096C14.1886 43.2775 17.3391 44.7437 18.9819 45.5082L18.9886 45.5113C19.4724 45.7088 19.8737 45.9593 20.1553 46.1938C22.0421 47.7661 22.6899 49.6308 21.2468 52.9046C20.2749 55.1097 18.111 56.1936 16.1965 56.4221C16.5639 55.5949 17.0154 54.7979 17.48 54.0762C17.6184 54.0922 17.7588 54.1009 17.9011 54.1009C20.0424 54.1009 21.7783 52.244 21.7783 49.9535C21.7783 47.9105 20.397 46.2137 18.5791 45.8705C18.3588 45.829 18.1326 45.8061 17.9011 45.8061C17.8514 45.8061 17.8021 45.808 17.7528 45.8101C16.3908 45.865 15.2089 46.671 14.5585 47.8527C13.8566 48.0576 13.0747 48.3408 12.2323 48.7317C12.2829 48.6357 12.3356 48.5398 12.3916 48.4443ZM28.3842 29.1631C28.3689 29.1573 28.358 29.1536 28.358 29.1536C28.358 29.1536 29.1782 29.1912 30.8577 29.2169C32.5373 29.2427 33.5192 28.8048 34.9404 27.3626C36.1154 26.1704 36.8862 25.7886 38.3439 25.7209C38.7495 26.1629 39.1286 26.6462 39.4738 27.1763C39.4541 27.1795 39.433 27.1828 39.4106 27.1863C38.7892 27.2843 37.141 27.5442 35.6164 28.6044C34.0368 29.7028 32.8244 30.545 31.3917 30.3985C30.6994 30.3278 30.2902 30.0481 29.886 29.7718C29.4767 29.4921 29.0724 29.2157 28.3842 29.1631Z" fill="#5C667D"/>
</g>
<g id="Group_33">
<path id="Vector_33" d="M19.816 29.1538C19.816 29.1538 19.7833 29.1553 19.7199 29.1577C19.6185 29.2103 19.5266 29.2696 19.443 29.3361C19.6664 29.2021 19.816 29.1538 19.816 29.1538Z" fill="#5C667D"/>
</g>
<g id="Group_34">
<path id="Vector_34" d="M19.5784 27.1088C20.5862 27.7669 22.6276 28.3938 23.9971 28.3938C25.3666 28.3938 27.408 27.7669 28.4158 27.1088C29.4234 26.4507 31.4131 26.0433 32.2402 26.0746C32.2127 26.0392 32.1769 26.0054 32.136 25.9724C31.2577 25.9743 29.3846 26.3028 28.4158 26.8228C27.408 27.3636 25.3666 27.8786 23.9971 27.8786C22.6276 27.8786 20.5862 27.3636 19.5784 26.8228C18.6096 26.3028 16.7363 25.9743 15.858 25.9724C15.8173 26.0054 15.7813 26.0392 15.754 26.0746C16.5809 26.0433 18.5706 26.4507 19.5784 27.1088Z" fill="#5C667D"/>
</g>
<g id="Group_35">
<path id="white-heighlights" fill-rule="evenodd" clip-rule="evenodd" d="M11.851 23.8701C13.0827 23.2298 15.2013 22.4668 18.6796 22.0638C18.0585 22.3811 17.5998 22.6674 17.2598 22.9193C13.4831 23.3763 11.6285 24.1594 10.836 24.6066C11.1636 24.3403 11.5029 24.0953 11.851 23.8701ZM36.1464 23.87C34.9149 23.2299 32.7963 22.4669 29.3172 22.0639C29.9382 22.3813 30.397 22.6678 30.7371 22.9193C34.5145 23.3763 36.369 24.1594 37.1612 24.6066C36.8337 24.3402 36.4945 24.0952 36.1464 23.87ZM32.2212 28.476C31.0794 28.8494 28.7772 28.6882 28.7772 28.6882C28.7772 28.6882 30.8116 28.4738 32.0784 27.9767C33.3451 27.4798 34.3263 26.8037 34.3263 26.8037C34.3263 26.8037 33.3632 28.1026 32.2212 28.476ZM13.67 26.8042C13.67 26.8042 14.6331 28.1031 15.7749 28.4764C16.9168 28.85 19.219 28.6889 19.219 28.6889C19.219 28.6889 17.1847 28.4743 15.9178 27.9773C14.651 27.4801 13.67 26.8042 13.67 26.8042ZM40.7616 31.3697C40.719 32.628 39.8847 33.1173 39.5926 33.2673C40.5855 32.215 40.4637 31.1896 40.2903 29.7522C40.5323 30.2387 40.6987 30.7915 40.7616 31.3697ZM35.297 43.1708C35.2915 43.8224 35.3995 44.4847 35.6858 45.114C35.5054 43.1455 35.6656 41.5264 36.6972 39.8518C35.5202 41.2506 35.3284 42.6734 35.2977 43.1226L35.297 43.1708ZM12.696 43.1708C12.702 43.8224 12.5938 44.4848 12.3073 45.1139C12.4877 43.1454 12.3276 41.5263 11.296 39.8519C12.4729 41.2504 12.665 42.6733 12.6955 43.1225C12.6958 43.1385 12.6961 43.1549 12.696 43.1708ZM21.3097 59.698C21.3097 59.698 20.7112 60.001 20.9327 61.8776C19.3071 59.3786 20.4236 56.9759 23.6831 56.8281C23.7882 56.8233 23.8956 56.8209 24.0052 56.8209C24.115 56.8209 24.2224 56.8233 24.3275 56.8281C27.587 56.9759 28.7035 59.3786 27.078 61.8776C27.2994 60.001 26.7009 59.698 26.7009 59.698C26.9007 60.7497 26.6556 62.5376 25.7742 63.7425C25.8123 63.1489 25.5516 62.7363 25.5516 62.7363C25.5516 62.7363 25.452 64.2472 24.0052 65.486C22.5586 64.2472 22.4591 62.7363 22.4591 62.7363C22.4591 62.7363 22.1984 63.1489 22.2363 63.7425C21.3551 62.5376 21.1099 60.7497 21.3097 59.698ZM7.9515 46.5716C6.47517 50.5719 6.36761 52.2885 6.51812 54.2912C6.65944 51.6809 7.23888 50.217 7.80888 48.777C7.94081 48.4437 8.07224 48.1117 8.19761 47.767C8.55577 46.7821 8.79423 45.9633 8.699 44.3533L8.6962 44.308C8.6947 44.283 8.6932 44.2581 8.69134 44.2334C8.69018 44.2164 8.68877 44.1987 8.68736 44.1811L8.68735 44.1809L8.68425 44.1409C8.65269 43.7488 8.60806 43.3709 8.55185 43.0076C8.51938 42.9913 8.52399 43.0442 8.5351 43.1718C8.56898 43.5605 8.66328 44.6429 7.9515 46.5716ZM40.1884 48.777L40.1883 48.7769L40.1882 48.7767L40.1882 48.7766L40.1881 48.7764C40.0562 48.4433 39.9249 48.1114 39.7996 47.7669C39.4412 46.7817 39.2029 45.9632 39.298 44.353L39.3014 44.3001C39.3028 44.2777 39.3042 44.2554 39.3058 44.2333C39.3075 44.2089 39.3095 44.1835 39.3115 44.1584L39.3115 44.1583L39.3129 44.1406C39.3443 43.7484 39.3889 43.3708 39.4453 43.0075C39.4777 42.9912 39.4731 43.044 39.462 43.1713C39.4281 43.5597 39.3337 44.6422 40.0457 46.5714C41.5218 50.5716 41.6296 52.2883 41.479 54.2909C41.3377 51.6807 40.7583 50.217 40.1884 48.777L40.1884 48.777ZM21.3863 49.5003C21.3863 47.5956 20.1058 46.0516 18.5262 46.0516C17.5767 46.0516 16.7375 46.612 16.2172 47.4709C17.4248 47.2727 18.1432 47.3341 18.1432 47.3341C18.1432 47.3341 17.1698 47.6518 15.8619 48.2535C15.7371 48.6406 15.6662 49.0601 15.6662 49.5003C15.6662 49.8038 15.7018 50.0966 15.7629 50.3769C17.5959 49.3365 18.8773 49.123 18.8773 49.123C18.8773 49.123 17.5612 49.9572 16.0755 51.2713C16.3806 51.8842 16.8372 52.3739 17.3853 52.662C18.8958 51.2367 20.0696 50.7292 20.0696 50.7292C20.0696 50.7292 19.2326 51.606 18.2638 52.933C18.3503 52.9425 18.4377 52.949 18.5262 52.949C20.1058 52.949 21.3863 51.405 21.3863 49.5003ZM26.6095 49.5004C26.6095 47.5957 27.89 46.0517 29.4695 46.0517C30.4191 46.0517 31.2583 46.6121 31.7785 47.471C30.5709 47.2728 29.8525 47.3342 29.8525 47.3342C29.8525 47.3342 30.826 47.6519 32.1339 48.2536C32.2586 48.6407 32.3296 49.0602 32.3296 49.5004C32.3296 49.804 32.2939 50.0967 32.2329 50.377C30.3997 49.3366 29.1185 49.1231 29.1185 49.1231C29.1185 49.1231 30.4346 49.9573 31.9203 51.2715C31.6151 51.8843 31.1584 52.374 30.6105 52.6621C29.1 51.2369 27.926 50.7293 27.926 50.7293C27.926 50.7293 28.7631 51.6061 29.7319 52.9331C29.6455 52.9426 29.5581 52.9491 29.4695 52.9491C27.89 52.9491 26.6095 51.4051 26.6095 49.5004ZM28.2613 37.6132C27.021 36.892 26.9693 34.9862 27.0985 32.6942C27.2278 30.402 25.1089 29.8096 23.9976 29.8096C22.8865 29.8096 20.7676 30.402 20.8969 32.6942C21.0261 34.9862 20.9744 36.892 19.7341 37.6132C18.5087 38.3257 16.9397 39.63 18.1687 41.5293C18.1998 41.5535 18.2312 41.5775 18.2643 41.6004C18.3057 41.1226 18.6426 40.7299 19.0945 40.6089L19.0943 40.6086C19.1072 40.6052 19.1244 40.6009 19.1447 40.5961L19.1554 40.5937C19.1599 40.5927 19.1643 40.5917 19.1688 40.5909C19.4766 40.5228 20.4487 40.3826 21.8733 40.8863C23.1179 41.326 23.4072 41.3435 23.998 41.3435C24.589 41.3435 24.8784 41.326 26.123 40.8863C27.5473 40.3826 28.52 40.5228 28.8275 40.5909C28.8348 40.5922 28.8419 40.5939 28.8491 40.5956L28.8514 40.5961C28.8718 40.6008 28.8891 40.6052 28.9018 40.6086V40.6089C29.3536 40.7299 29.6902 41.1224 29.7319 41.6C29.7647 41.5771 29.7959 41.5533 29.8267 41.5293C31.0557 39.63 29.4867 38.3257 28.2613 37.6132ZM7.70554 29.7522C7.53206 31.1896 7.41031 32.2151 8.40318 33.2674C8.11113 33.1173 7.27679 32.628 7.23422 31.3697C7.29715 30.7915 7.46353 30.2387 7.70554 29.7522Z" fill="white"/>
</g>
<g id="Group_36">
<path id="Vector_35" d="M32.1362 25.9719C32.1714 25.9719 32.2082 25.9714 32.2402 25.9723C31.8525 25.5602 30.0438 25.3285 28.6485 25.6633C27.253 25.9982 25.4701 26.1526 23.9971 26.1526C22.5243 26.1526 20.7414 25.9982 19.3459 25.6633C17.9506 25.3285 16.1417 25.5602 15.754 25.9723C15.7861 25.9714 15.8229 25.9719 15.8582 25.9719C16.7364 25.9738 18.6096 26.3023 19.5786 26.8223C20.5862 27.3631 22.6276 27.8781 23.9971 27.8781C25.3666 27.8781 27.408 27.3631 28.4158 26.8223C29.3846 26.3023 31.2579 25.9738 32.1362 25.9719Z" fill="#05063A"/>
</g>
<g id="Group_37">
<path id="Vector_36" d="M20.1473 31.3292C19.0104 32.2565 19.7098 34.2814 19.6581 35.2858C19.6065 36.2903 18.8971 36.9055 18.7679 38.0128C19.6671 36.5951 20.1493 36.6109 20.2798 35.441C20.4347 34.0502 19.7103 32.9385 20.1473 31.3292Z" fill="#05063A"/>
</g>
<g id="Group_38">
<path id="Vector_37" d="M27.8496 31.3291C28.2866 32.9384 27.5623 34.0501 27.7172 35.4409C27.8477 36.6108 28.3298 36.595 29.229 38.0127C29.0998 36.9054 28.3904 36.2902 28.3389 35.2857C28.2872 34.2813 28.9866 32.2564 27.8496 31.3291Z" fill="#05063A"/>
</g>
<g id="Group_39">
<path id="nose" d="M19.4588 41.9593C19.4664 41.9577 20.2018 41.779 21.4051 42.2041C22.7274 42.6714 23.1686 42.7421 23.9989 42.7421C24.8293 42.7421 25.2705 42.6714 26.5928 42.2041C27.7924 41.7801 28.5272 41.9563 28.5391 41.9593C28.6833 41.9969 28.8308 41.9119 28.8697 41.7684C28.9087 41.6243 28.823 41.476 28.6786 41.4373C28.6432 41.4278 27.7894 41.2082 26.4115 41.6949C25.095 42.1601 24.7238 42.2016 23.9989 42.2016C23.2741 42.2016 22.9029 42.1601 21.5864 41.6949C20.2085 41.208 19.3551 41.4276 19.3193 41.4373C19.1755 41.4758 19.0907 41.6228 19.1286 41.7663C19.1663 41.9102 19.3148 41.9956 19.4588 41.9593Z" fill="#EB5437"/>
</g>
</g>
<g id="eyes">
<path id="Union_3" fill-rule="evenodd" clip-rule="evenodd" d="M12.8249 30.4955C13.3578 30.8631 14.8125 31.7822 16.6774 32.3748C13.4842 32.4304 12.7584 31.7738 12.2362 31.3013C12.1853 31.2553 12.1364 31.2111 12.0873 31.1694C11.5339 30.6997 11.2675 30.0459 11.4314 29.8826C11.5954 29.7192 12.292 30.1277 12.8249 30.4955ZM31.3174 32.3744C33.1823 31.7821 34.6373 30.8628 35.1699 30.4953C35.7027 30.1276 36.3994 29.7192 36.5633 29.8825C36.7274 30.046 36.4611 30.6995 35.9078 31.1693C35.8587 31.211 35.8098 31.2552 35.7589 31.3012C35.2366 31.7737 34.5107 32.4301 31.3174 32.3744Z" fill="#EB5437"/>
</g>
<g id="crown">
<g id="Group_40">
<path id="Vector_38" d="M18.8225 16.4305C18.8225 16.4305 18.8172 16.4305 18.8082 16.4304L18.8154 16.4613L18.8225 16.4305Z" fill="#FBC333"/>
</g>
<g id="Group_41">
<path id="Vector_39" d="M29.1406 16.4305L29.1477 16.4613L29.1548 16.4304C29.1459 16.4305 29.1406 16.4305 29.1406 16.4305Z" fill="#FBC333"/>
</g>
<g id="Group_42">
<path id="Vector_40" d="M18.5048 15.0608L18.7626 16.1659L18.5048 15.0608Z" fill="#FBC333"/>
</g>
<g id="Group_43">
<path id="Vector_41" d="M18.8225 16.4299L18.761 16.1658L18.5032 15.0607C18.4983 15.0612 18.4938 15.0622 18.489 15.0627L18.8079 16.4297C18.8171 16.4299 18.8225 16.4299 18.8225 16.4299Z" fill="#FEE749"/>
</g>
<g id="Group_44">
<path id="Vector_42" d="M18.0276 19.0392C18.1146 18.8377 18.1766 18.6212 18.2151 18.3979C16.6047 18.8001 13.9043 19.5903 12.2687 20.7009C14.9586 19.6283 16.867 19.2045 18.0276 19.0392Z" fill="#FEE749"/>
</g>
<g id="Group_45">
<path id="Vector_43" d="M29.1573 16.4298L29.4755 15.0632C29.4707 15.0625 29.4661 15.0618 29.4615 15.0611L29.1427 16.4301C29.1427 16.4301 29.1481 16.4298 29.1573 16.4298Z" fill="#FEE749"/>
</g>
<g id="Group_46">
<path id="Vector_44" d="M29.7513 18.3976C29.7896 18.6208 29.8516 18.8374 29.9388 19.039C31.0994 19.2043 33.0076 19.6279 35.6976 20.7006C34.0619 19.5901 31.3618 18.7998 29.7513 18.3976Z" fill="#FEE749"/>
</g>
<g id="Group_47">
<path id="Union_4" fill-rule="evenodd" clip-rule="evenodd" d="M18.2147 18.3975C18.3288 17.7337 18.2296 17.0132 17.9318 16.4562C17.5574 15.7558 16.8698 15.3149 15.8937 15.5805C15.9163 15.5679 15.9372 15.5558 15.9582 15.5436C15.9682 15.5378 15.9782 15.532 15.9884 15.5262C16.7854 15.3417 17.6199 15.1874 18.4905 15.0627L18.8087 16.4298L18.816 16.4612L18.0251 19.8586L18.0897 19.8783C17.743 19.9375 17.4005 20.0015 17.0634 20.0713C17.5125 19.8666 17.8321 19.4912 18.0274 19.0389C18.1144 18.8372 18.1764 18.6207 18.2147 18.3975ZM29.9395 19.8586L29.1485 16.4612L29.1558 16.4298L29.4741 15.0627C30.3445 15.1874 31.179 15.3417 31.976 15.5262C31.9891 15.5336 32.0018 15.541 32.0146 15.5484C32.0329 15.5589 32.0513 15.5696 32.0709 15.5805C31.0946 15.3149 30.4073 15.7558 30.0327 16.4562C29.7348 17.0132 29.6357 17.7337 29.7498 18.3975C29.788 18.6207 29.85 18.8372 29.9372 19.0389C30.1324 19.4912 30.4519 19.8666 30.901 20.0713C30.5639 20.0015 30.2215 19.9375 29.8747 19.8783L29.9395 19.8586Z" fill="#E3A500"/>
</g>
<g id="Group_48">
<path id="Vector_45" d="M29.6896 13.1453L29.5939 13.5559L28.9249 16.4295L29.6896 19.7137L26.4534 20.696L26.5621 20.8836L29.8757 19.8779L29.9405 19.8583L29.1495 16.4608L29.1422 16.4295L29.461 15.0603L29.9405 13.0009L29.6896 13.1453Z" fill="#FBC333"/>
</g>
<g id="Group_49">
<path id="Vector_46" d="M21.5121 12.1637L23.9834 9.8616V9.57275L21.4034 11.9762H21.4033L21.5121 12.1637Z" fill="#FBC333"/>
</g>
<g id="Group_50">
<path id="Vector_47" d="M18.82 16.4296L18.8127 16.4609L18.0217 19.8583L18.0865 19.878L21.4001 20.8836L23.98 23.287V22.9982L21.5088 20.6961L18.2726 19.7138L19.0373 16.4296C19.0371 16.43 19.0371 16.4304 19.0371 16.4308L19.0373 16.4296L19.0371 16.4287C19.0371 16.4291 19.0371 16.4293 19.0373 16.4296L18.2726 13.1455L18.0217 13.001L18.5012 15.0604L18.7585 16.1655L18.82 16.4296Z" fill="#FBC333"/>
</g>
<g id="Group_51">
<path id="Vector_48" d="M23.9823 9.86194L21.511 12.164L23.9823 9.86194Z" fill="#FBC333"/>
</g>
<g id="Group_52">
<path id="Vector_49" d="M18.896 18.6257C19.2327 17.8732 19.8943 17.6597 20.4977 17.8427C19.3451 18.5639 19.4546 19.8737 21.5116 20.6969L21.5124 20.6971L21.7962 19.7228L23.9838 21.3081L26.1714 19.7228L26.4551 20.6971L26.4558 20.6969C28.5129 19.8737 28.6225 18.5639 27.4698 17.8427C28.0732 17.6597 28.7349 17.8732 29.0716 18.6257C29.1618 18.123 29.0929 17.5923 28.9267 16.4308L29.5956 13.557L28.9267 16.4306C29.0929 15.2691 29.1618 14.7385 29.0716 14.2358C28.7349 14.9882 28.0732 15.2017 27.4698 15.0186C28.6225 14.2976 28.5129 12.9875 26.4558 12.1645L26.4551 12.1643L26.1714 13.1386V19.701L23.9838 21.2864L21.7962 19.701V13.1386L21.5124 12.1643L21.5118 12.1645C19.4546 12.9875 19.3451 14.2976 20.4977 15.0186C19.8943 15.2017 19.2327 14.9882 18.896 14.2358C18.8058 14.7383 18.8747 15.2687 19.0408 16.4299L19.0411 16.4308L19.0408 16.4317C18.8747 17.5925 18.8058 18.1231 18.896 18.6257Z" fill="#FBC333"/>
</g>
<g id="Group_53">
<path id="Vector_50" d="M25.9582 19.5935L23.9824 21.0255V21.2864L26.17 19.7009V13.1387L25.9582 13.2461V19.5935Z" fill="#FAB911"/>
</g>
<g id="Group_54">
<path id="Vector_51" d="M22.0063 19.5933V13.2459L23.9822 11.8139V11.5532L21.7946 13.1385V19.7007L23.9822 21.2862V21.0253L22.0063 19.5933Z" fill="#FEE749"/>
</g>
<g id="Group_55">
<path id="Vector_52" d="M25.4286 13.7008V19.5108L23.9821 20.5592L22.5357 19.5108V13.7008L23.9821 12.6525L25.4286 13.7008ZM22.0063 13.4321V19.7795L23.9821 21.2115L25.958 19.7795V13.4321L23.9821 12.0001L22.0063 13.4321Z" fill="#050A20"/>
</g>
<g id="Group_56">
<path id="Vector_53" d="M24.7073 5.37495L24.6672 5.25174L23.9983 3.20001V6.34908L24.0752 6.24336L24.7073 5.37495Z" fill="#FFEF80"/>
</g>
<g id="Group_57">
<path id="Vector_54" d="M23.8734 6.1778L23.2878 5.37568L20.9931 5.37559L23.9982 6.34875L23.8734 6.1778Z" fill="#FFEF80"/>
</g>
<g id="Group_58">
<path id="Vector_55" d="M23.7974 6.415L22.8509 6.72228L22.677 7.25568L22.1418 8.89721L23.9989 6.34949L23.8744 6.39006L23.7974 6.415Z" fill="#FEE749"/>
</g>
<g id="Group_59">
<path id="Vector_56" d="M24.7088 5.37598L24.2976 5.93916L24.0754 6.24346L23.9982 6.34917L27.0032 5.37598H24.7088Z" fill="#FEE749"/>
</g>
<g id="Group_60">
<path id="Vector_57" d="M25.8556 8.89721L25.1466 6.72228L23.9984 6.34949L25.8556 8.89721Z" fill="#FEE749"/>
</g>
<g id="Group_61">
<path id="Vector_58" d="M16.9562 9.21576L17.4181 8.58241L17.3887 8.49252L17.159 7.78919L16.8998 6.99615V9.29281L16.9562 9.21576Z" fill="#FFEF80"/>
</g>
<g id="Group_62">
<path id="Vector_59" d="M16.8089 9.16745L16.3818 8.58252L14.7081 8.58253L16.8998 9.29205L16.8089 9.16745Z" fill="#FFEF80"/>
</g>
<g id="Group_63">
<path id="Vector_60" d="M16.7538 9.34037L16.0635 9.56446L15.9367 9.95344L15.5464 11.1507L16.9008 9.29254L16.81 9.32213L16.7538 9.34037Z" fill="#FEE749"/>
</g>
<g id="Group_64">
<path id="Vector_61" d="M17.418 8.58252L17.1181 8.99378L16.956 9.2159L16.8998 9.29305L19.0914 8.58252H17.418Z" fill="#FEE749"/>
</g>
<g id="Group_65">
<path id="Vector_62" d="M17.7405 9.56447L16.9101 9.29489L16.9032 9.29246L18.2575 11.1508L17.7405 9.56447Z" fill="#FEE749"/>
</g>
<g id="Group_66">
<path id="Vector_63" d="M10.6218 12.1341L10.5958 12.2139L11.0059 12.7762L11.0559 12.8447V10.8054L10.6218 12.1341Z" fill="#FFEF80"/>
</g>
<g id="Group_67">
<path id="Vector_64" d="M11.5148 12.2144L11.1357 12.7338L11.0548 12.8446L13.0005 12.2145L11.5148 12.2144Z" fill="#FFEF80"/>
</g>
<g id="Group_68">
<path id="Vector_65" d="M12.2578 14.4945L11.7986 13.086L11.1855 12.887L11.1358 12.8708L11.055 12.8446L12.2578 14.4945Z" fill="#FEE749"/>
</g>
<g id="Group_69">
<path id="Vector_66" d="M10.5949 12.2145H9.10902L11.055 12.8455L11.0049 12.7769L10.5949 12.2145Z" fill="#FEE749"/>
</g>
<g id="Group_70">
<path id="Vector_67" d="M9.84924 14.4945L11.052 12.8446L10.3084 13.086L9.84924 14.4945Z" fill="#FEE749"/>
</g>
<g id="Group_71">
<path id="Vector_68" d="M30.5753 8.4924L30.546 8.58229L31.0079 9.21564L31.064 9.29269V6.99603L30.8051 7.78907L30.5753 8.4924Z" fill="#FFEF80"/>
</g>
<g id="Group_72">
<path id="Vector_69" d="M31.5795 8.58272L31.1522 9.16796L31.0614 9.29241L33.2527 8.58279L31.5795 8.58272Z" fill="#FFEF80"/>
</g>
<g id="Group_73">
<path id="Vector_70" d="M31.9022 9.56446L31.2118 9.34037L31.1558 9.32213L31.0649 9.29254L32.4193 11.1507L31.9022 9.56446Z" fill="#FEE749"/>
</g>
<g id="Group_74">
<path id="Vector_71" d="M30.5467 8.58252H28.8734L31.0649 9.29305L31.0087 9.2159L30.5467 8.58252Z" fill="#FEE749"/>
</g>
<g id="Group_75">
<path id="Vector_72" d="M30.8823 9.3508L30.2245 9.56446L29.9298 10.4684L29.7074 11.1505L31.0618 9.29254L31.0549 9.29477L30.8823 9.3508Z" fill="#FEE749"/>
</g>
<g id="Group_76">
<path id="Vector_73" d="M36.9097 12.8451L36.9597 12.7766L37.3698 12.2142L37.3438 12.1345L36.9097 10.8057V12.8451Z" fill="#FFEF80"/>
</g>
<g id="Group_77">
<path id="Vector_74" d="M36.4496 12.2145H34.9638L36.9097 12.8455L36.8289 12.7346L36.4496 12.2145Z" fill="#FFEF80"/>
</g>
<g id="Group_78">
<path id="Vector_75" d="M36.7802 12.8869L36.1672 13.0859L35.708 14.4944L36.9108 12.8445L36.8301 12.8707L36.7802 12.8869Z" fill="#FEE749"/>
</g>
<g id="Group_79">
<path id="Vector_76" d="M36.9097 12.8447L36.9098 12.8357L36.9097 12.8447Z" fill="#FEE749"/>
</g>
<g id="Group_80">
<path id="Vector_77" d="M37.3697 12.2143L36.9596 12.7761L36.9096 12.8446L38.8552 12.2145L37.3697 12.2143Z" fill="#FEE749"/>
</g>
<g id="Group_81">
<path id="Vector_78" d="M38.1125 14.4945L37.6533 13.086L36.9097 12.8446L38.1125 14.4945Z" fill="#FEE749"/>
</g>
<g id="Group_82">
<path id="Vector_79" d="M20.9925 5.37567H23.2869L23.8727 6.17783L23.9975 6.34887V3.19962L24.6663 5.25154L24.7065 5.37456L24.0744 6.24316L23.9975 6.34887L24.0746 6.24316L24.2968 5.93886L24.708 5.37567H27.0026L23.9975 6.34887L25.1457 6.72147L25.8547 8.8966L23.9975 6.34887L22.1404 8.89641L22.6756 7.25488L22.8494 6.72147L23.796 6.4142L23.8729 6.38926L23.9975 6.34887L20.9925 5.37567ZM21.903 9.22192L23.9975 7.70527L26.0917 9.22192L25.9304 8.72649L25.2919 6.768L27.3863 5.25154H24.7974V5.25135L23.9976 2.79742L23.1977 5.25154H20.6088L22.7032 6.768L21.903 9.22192Z" fill="#FAB911"/>
</g>
<g id="Group_83">
<path id="Vector_80" d="M16.3818 8.58332L16.8089 9.16828L16.9 9.29298V6.99632L17.1587 7.78936L17.3878 8.49268L17.4171 8.58258L16.9562 9.21593L16.9 9.29298L16.9562 9.21593L17.1183 8.99408L17.4182 8.58332H19.0916L16.9 9.29298L16.9069 9.29521L17.7374 9.56489L18.2544 11.1511L16.9 9.29298L15.5455 11.1511L15.9359 9.95387L16.0627 9.56489L16.7531 9.34081L16.8091 9.32257L16.9 9.29298L14.7085 8.58332H16.3818ZM15.1828 9.03893L15.9561 9.59876L15.3725 11.3884L16.9 10.2824L18.4273 11.3884L18.2765 10.9252L18.2625 10.8826L17.844 9.59876L19.3715 8.49268H17.4834L16.9 6.703L16.456 8.06518L16.3167 8.49268H14.4286L15.1828 9.03893Z" fill="#FAB911"/>
</g>
<g id="Group_84">
<path id="Vector_81" d="M11.0536 10.8056V12.845L11.1345 12.7343L11.5138 12.2149H12.9996L11.0536 12.845L11.1343 12.8711L11.1842 12.8873L11.7972 13.0863L12.2564 14.4948H12.2562L11.0536 12.845L9.85088 14.4948L10.3101 13.0863L11.0536 12.845L9.10768 12.2149H10.5935L11.0036 12.7766L11.0536 12.845L11.0038 12.7766L10.5945 12.2141L10.6204 12.1343L11.0536 10.8056ZM10.6699 11.722L10.5356 12.1343H8.85913L10.2154 13.1164L9.69757 14.7055L11.0536 13.7233L12.0079 14.4142L12.4101 14.7055L12.2829 14.3157L11.8919 13.1164L12.8136 12.4488L13.2482 12.1343H11.5717L11.2322 11.0928L11.0536 10.5452L10.6699 11.722Z" fill="#FAB911"/>
</g>
<g id="Group_85">
<path id="Vector_82" d="M31.061 6.99632V9.29298L31.152 9.16847L31.5792 8.58332H33.2526L31.061 9.29298L31.152 9.32257L31.208 9.34081L31.8984 9.56489L32.4154 11.1511L31.061 9.29298L29.7067 11.1511L29.9291 10.4689L30.2237 9.56489L30.6416 9.42921L30.8816 9.35123L31.0541 9.2954L31.061 9.29298L28.8695 8.58332H30.5429L31.0048 9.21593L31.061 9.29298L31.0048 9.21593L30.544 8.58258L30.5733 8.49268L30.8024 7.78936L31.061 6.99632ZM30.4775 8.49268H28.5896L30.1171 9.59876L29.5337 11.3884L31.061 10.2824L32.5885 11.3884L32.005 9.59876L32.7783 9.03893L32.9613 8.90642L33.5325 8.49268H31.6444L31.5051 8.06518L31.061 6.703L30.4775 8.49268Z" fill="#FAB911"/>
</g>
<g id="Group_86">
<path id="Vector_83" d="M37.3455 12.1343L37.3714 12.2141L36.9621 12.7764L36.9189 12.8357L36.9124 12.8449L36.9623 12.7766L37.3723 12.2147H38.8582L36.9124 12.8449H36.9122L37.6558 13.0863L38.115 14.4948L36.9122 12.8449L35.7096 14.4948L36.1688 13.0863L36.7817 12.8873L36.8316 12.8711L36.9122 12.8449L34.9663 12.2147H36.4521L36.8316 12.7343L36.9122 12.8449V10.8056L37.3455 12.1343ZM36.3942 12.1343H34.7179L35.3849 12.6172L36.0742 13.1164L35.556 14.7055L36.1147 14.301L36.9122 13.7233L38.2685 14.7055L37.9122 13.6126L37.7505 13.1164L39.1067 12.1343H37.4304L37.296 11.722L36.9124 10.5452H36.9122L36.7337 11.0928L36.3942 12.1343Z" fill="#FAB911"/>
</g>
<g id="Group_87">
<path id="Vector_84" d="M23.9832 11.8132L25.9587 13.2453L26.1705 13.1379L23.983 11.5523L23.9832 11.8132Z" fill="#E3A500"/>
</g>
<g id="Group_88">
<path id="Vector_85" d="M26.4537 12.1633L26.5624 11.9757L23.9825 9.57265L23.9825 9.86147L26.4537 12.1633Z" fill="#FAB911"/>
</g>
<g id="Group_89">
<path id="Vector_86" d="M23.9828 11.5526L26.1705 13.138L26.4541 12.1637L23.9829 9.86153L23.9828 11.5526Z" fill="#FEE749"/>
</g>
<g id="Group_90">
<path id="Vector_87" d="M23.9824 11.5524V9.86133L21.5111 12.1634L21.7949 13.1377L23.9824 11.5524Z" fill="#FAB911"/>
</g>
<g id="Group_91">
<path id="Vector_88" d="M23.9824 22.9984V23.2873L26.5625 20.884V20.8838L26.4536 20.6964L23.9824 22.9984Z" fill="#E3A500"/>
</g>
<g id="Group_92">
<path id="Vector_89" d="M26.4545 20.6967L26.1706 19.7222L23.9833 21.3076L23.9832 22.9987L26.4545 20.6967Z" fill="#FBC333"/>
</g>
<g id="Group_93">
<path id="Vector_90" d="M23.9819 21.3075L21.7944 19.7221L21.5106 20.6965L23.9818 22.9984L23.9819 21.3075Z" fill="#E3A500"/>
</g>
<g id="Group_94">
<path id="Vector_91" d="M29.6914 13.1458L29.9424 13.0014L26.5641 11.9763L26.4555 12.1636L29.6914 13.1458Z" fill="#FEE749"/>
</g>
<g id="Group_95">
<path id="Vector_92" d="M21.511 12.1636L21.4024 11.9762L18.0239 13.0016L18.275 13.1459L21.511 12.1636Z" fill="#FEE749"/>
</g>
<g id="Group_96">
<path id="Vector_93" d="M8.01019 15.539L8.16256 16.9146L8.01019 15.539L3.37301 16.0819L8.01019 15.539Z" fill="#FEE749"/>
</g>
<g id="Group_97">
<path id="Vector_94" d="M3.3736 16.0815C3.37472 16.0817 5.35561 16.4644 6.90775 19.3322C7.2351 18.5371 7.33949 17.8133 7.17871 17.0486C7.946 18.7508 7.96692 20.3004 8.08008 21.8811C8.14152 21.8018 8.20575 21.7225 8.26812 21.6473C8.2713 21.6486 8.27391 21.6508 8.27709 21.6521C8.3895 21.5073 8.51069 21.3631 8.63991 21.22C8.7273 21.1232 8.81881 21.0268 8.91423 20.9313C8.91703 20.9285 8.91983 20.9257 8.92263 20.9229C9.01749 20.8282 9.11628 20.7342 9.21935 20.6414C9.22197 20.6389 9.22458 20.6365 9.2272 20.6343C9.35847 20.5161 9.49815 20.4 9.64324 20.2851C9.84622 20.1245 10.0613 19.9672 10.2927 19.8152C10.2948 19.8139 10.2966 19.8126 10.2985 19.8113C10.4251 19.7283 10.5568 19.6468 10.6921 19.5667C10.7033 19.5602 10.7144 19.5537 10.7256 19.547C10.857 19.4701 10.993 19.3948 11.133 19.3211C11.1489 19.3127 11.1648 19.3043 11.1808 19.2959C11.3205 19.2233 11.4643 19.1523 11.6126 19.083C11.6288 19.0754 11.6452 19.0681 11.6615 19.0605C11.8131 18.9907 11.9685 18.9226 12.1293 18.8567C12.1403 18.852 12.1518 18.8478 12.1629 18.8431C12.4958 18.708 12.8484 18.5816 13.2217 18.4655C13.2373 18.4605 13.2528 18.4554 13.2687 18.4506C13.4459 18.3961 13.6286 18.3443 13.8149 18.2948C13.8416 18.2877 13.8679 18.2805 13.8947 18.2734C14.0777 18.2258 14.2655 18.1807 14.4578 18.1379C14.4896 18.1307 14.5215 18.1238 14.5535 18.1169C14.7467 18.0748 14.9443 18.0354 15.1469 17.9987C15.1779 17.9931 15.2095 17.9877 15.2408 17.9823C15.449 17.9457 15.6615 17.9112 15.8797 17.8803C15.9028 17.8772 15.9265 17.8742 15.9497 17.871C16.1801 17.8392 16.4148 17.81 16.6567 17.7849C15.4326 17.5297 13.4371 17.6976 11.4645 18.2783C13.6525 16.8863 16.5058 16.5407 17.9308 16.4564C17.5563 15.7558 16.869 15.3151 15.8927 15.5805C15.926 15.5619 15.9558 15.5444 15.9874 15.5264C12.9421 16.2315 10.4277 17.3644 8.37606 18.8372L8.37568 18.8336L7.66795 16.013L3.3736 16.0815Z" fill="#FEE749"/>
</g>
<g id="Group_98">
<path id="Vector_95" d="M6.84725 24.7825L6.84819 24.7849C6.84819 24.7849 6.92288 22.0434 6.02692 19.7224C5.13097 17.4013 3.3736 16.0818 3.3736 16.0818L6.84725 24.7825Z" fill="#E3A500"/>
</g>
<g id="Group_99">
<path id="Vector_96" d="M7.66943 16.0135L8.37697 18.8339L8.37716 18.834L8.16447 16.9146L8.01209 15.5391L7.66943 16.0135Z" fill="#E3A500"/>
</g>
<g id="Group_100">
<path id="Vector_97" d="M3.3736 16.0826L7.66795 16.0141L8.0108 15.5391L3.3736 16.0826Z" fill="#FAB911"/>
</g>
<g id="Group_101">
<path id="Union_5" fill-rule="evenodd" clip-rule="evenodd" d="M12.2674 20.7005C14.9574 19.628 16.8658 19.2042 18.0264 19.0389C17.831 19.4912 17.5115 19.8667 17.0626 20.0713C12.9313 20.927 9.52504 22.5647 6.84931 24.7824L6.84819 24.7846C6.84819 24.7846 6.92288 22.0432 6.02692 19.7221C5.13096 17.4013 3.3736 16.0815 3.3736 16.0815C3.37472 16.0817 5.35561 16.4644 6.90775 19.3322C7.2351 18.5371 7.33949 17.8133 7.17871 17.0486C7.86198 18.5644 7.95324 19.959 8.04507 21.3625C8.05637 21.5351 8.06767 21.7078 8.08008 21.8809C8.14133 21.8018 8.20575 21.7223 8.26812 21.6471C8.26948 21.6478 8.27073 21.6485 8.27197 21.6493C8.27363 21.6503 8.27527 21.6513 8.27709 21.652C8.3895 21.5072 8.51069 21.3631 8.63991 21.22C8.72731 21.123 8.81881 21.0268 8.91423 20.9311L8.92263 20.9228C9.01749 20.8282 9.11628 20.7342 9.21936 20.6412L9.2272 20.6343C9.35847 20.5161 9.49815 20.3998 9.64324 20.2851C9.84623 20.1245 10.0613 19.9672 10.2927 19.8152L10.2985 19.8113C10.4251 19.7281 10.5568 19.6468 10.6921 19.5667L10.7256 19.547C10.857 19.47 10.993 19.3946 11.133 19.3209L11.1808 19.2959C11.3205 19.2232 11.4643 19.1523 11.6126 19.083C11.6249 19.0772 11.6374 19.0715 11.6498 19.0659C11.6537 19.0641 11.6576 19.0623 11.6615 19.0605C11.8131 18.9907 11.9685 18.9224 12.1291 18.8567C12.1343 18.8545 12.1396 18.8524 12.1449 18.8503C12.151 18.848 12.157 18.8456 12.1629 18.8431C12.4956 18.7078 12.8484 18.5816 13.2217 18.4655L13.2294 18.463C13.2424 18.4588 13.2554 18.4546 13.2687 18.4506C13.4459 18.3961 13.6284 18.3443 13.8149 18.2946L13.8947 18.2734C14.0777 18.2258 14.2655 18.1805 14.4577 18.1377L14.5535 18.1167C14.7467 18.0748 14.9443 18.0354 15.1469 17.9987C15.1655 17.9953 15.1843 17.992 15.2031 17.9887C15.2156 17.9866 15.2282 17.9844 15.2406 17.9821C15.449 17.9455 15.6614 17.9112 15.8797 17.8803C15.8932 17.8784 15.907 17.8766 15.9208 17.8748C15.9304 17.8736 15.9401 17.8723 15.9497 17.871C16.1801 17.8392 16.4148 17.8098 16.6565 17.7847C15.4324 17.5297 13.437 17.6974 11.4645 18.2783C13.6525 16.8863 16.5058 16.5407 17.9308 16.4562C18.2286 17.0132 18.3279 17.7337 18.2138 18.3976C16.6034 18.7998 13.9031 19.59 12.2674 20.7005ZM44.5896 16.0817C44.5713 16.0955 42.8277 17.4133 41.9364 19.7221C41.0439 22.0338 41.1146 24.7629 41.1151 24.7845L41.1151 24.7846L41.1138 24.7824C38.4381 22.5647 35.032 20.927 30.9007 20.0713C30.4518 19.8666 30.1323 19.4912 29.9369 19.0389C31.0975 19.2042 33.0059 19.628 35.6959 20.7005C34.0603 19.59 31.3599 18.7998 29.7495 18.3976C29.6354 17.7337 29.7347 17.0132 30.0326 16.4562C31.4575 16.5407 34.3109 16.8863 36.4988 18.2783C34.5262 17.6974 32.5307 17.5297 31.3066 17.7847C31.5485 17.8098 31.7832 17.8392 32.0136 17.871C32.0232 17.8723 32.0329 17.8736 32.0426 17.8748C32.0563 17.8766 32.0701 17.8784 32.0837 17.8803C32.3018 17.9112 32.5143 17.9455 32.7225 17.9821C32.7344 17.9843 32.7464 17.9864 32.7584 17.9884C32.7779 17.9918 32.7972 17.9951 32.8164 17.9987C33.019 18.0354 33.2166 18.0748 33.4099 18.1167L33.5055 18.1377C33.6976 18.1805 33.8857 18.2258 34.0687 18.2734L34.1482 18.2946C34.3348 18.3443 34.5174 18.3961 34.6946 18.4504L34.7416 18.4655C35.1149 18.5816 35.4677 18.7078 35.8004 18.8431C35.806 18.8454 35.8116 18.8477 35.8172 18.8499C35.8229 18.8521 35.8285 18.8544 35.8341 18.8567C35.9948 18.9224 36.1502 18.9907 36.3018 19.0605L36.3134 19.0658C36.3259 19.0715 36.3384 19.0772 36.3507 19.083C36.499 19.1523 36.643 19.2233 36.7827 19.2961L36.8301 19.3209C36.9703 19.3946 37.1065 19.4701 37.2383 19.5472C37.2437 19.5504 37.249 19.5536 37.2544 19.5568C37.2597 19.56 37.265 19.5632 37.2704 19.5664C37.4062 19.6466 37.538 19.7281 37.665 19.8113C37.6667 19.8126 37.6684 19.8137 37.67 19.8148C37.9432 19.9942 38.1946 20.1807 38.4284 20.3719C38.5346 20.4588 38.6383 20.5463 38.7369 20.635L38.7434 20.6408C38.8468 20.7342 38.9462 20.8286 39.0416 20.9237L39.0481 20.9304C39.1439 21.0262 39.2358 21.123 39.3236 21.2202C39.4526 21.3631 39.574 21.5073 39.6862 21.652C39.6894 21.6508 39.692 21.6486 39.6952 21.6471C39.7576 21.7223 39.822 21.8018 39.8832 21.8809C39.8956 21.7084 39.9068 21.5363 39.9181 21.3643C40.0098 19.9602 40.101 18.565 40.7846 17.0486C40.6238 17.8133 40.7282 18.5371 41.0556 19.3322C42.6077 16.4644 44.5886 16.0817 44.5897 16.0815L44.5896 16.0817Z" fill="#FBC333"/>
</g>
<g id="Group_102">
<path id="Vector_98" d="M30.0348 16.4563C31.4598 16.5408 34.3133 16.8864 36.5011 18.2783C34.5286 17.6975 32.5331 17.5298 31.3091 17.7848C31.5507 17.8099 31.7856 17.8391 32.0161 17.8709C32.0392 17.8741 32.0629 17.8771 32.0859 17.8802C32.3042 17.9113 32.5167 17.9456 32.7249 17.9822C32.7561 17.9878 32.7876 17.993 32.8186 17.9986C33.0213 18.0354 33.2188 18.0749 33.4121 18.1168C33.4442 18.1237 33.4761 18.1307 33.5079 18.1378C33.7 18.1806 33.8879 18.2257 34.0709 18.2735C34.0978 18.2804 34.1241 18.2876 34.1506 18.2947C34.3372 18.3444 34.5198 18.396 34.6968 18.4505C34.7129 18.4553 34.7282 18.4605 34.7441 18.4654C35.1174 18.5815 35.4699 18.7079 35.8027 18.8432C35.8139 18.8477 35.8253 18.8521 35.8365 18.8566C35.9971 18.9225 36.1526 18.9906 36.3041 19.0606C36.3203 19.068 36.3369 19.0755 36.353 19.0829C36.5014 19.1521 36.6452 19.2232 36.7851 19.296C36.801 19.3042 36.8167 19.3126 36.8323 19.3208C36.9726 19.3946 37.1089 19.4702 37.2405 19.5473C37.2514 19.5536 37.262 19.5601 37.2728 19.5664C37.4086 19.6465 37.5404 19.7282 37.6672 19.8114C37.6689 19.8125 37.6706 19.8136 37.6725 19.8147C37.9455 19.9943 38.1968 20.1808 38.4306 20.3719C38.5369 20.4587 38.6407 20.5461 38.7391 20.6349C38.7413 20.6368 38.7436 20.6388 38.7456 20.6407C38.8493 20.7341 38.9486 20.8285 39.0438 20.9238C39.0461 20.926 39.0483 20.928 39.0506 20.9303C39.1464 21.0263 39.2382 21.1229 39.326 21.2201C39.455 21.3632 39.5762 21.5072 39.6885 21.652C39.6916 21.6507 39.6942 21.6485 39.6974 21.6472C39.7598 21.7224 39.8242 21.8019 39.8855 21.881C39.9988 20.3003 40.0197 18.7507 40.787 17.0485C40.6261 17.8134 40.7304 18.5372 41.0578 19.3321C42.6101 16.4643 44.591 16.0818 44.592 16.0814L40.2976 16.0131L39.5901 18.8337L39.9549 15.5387L44.592 16.0814H44.5921L39.9549 15.5387L39.5895 18.8372C37.538 17.3643 35.0234 16.2314 31.9781 15.5262C32.0097 15.5443 32.0396 15.562 32.0728 15.5806C31.0968 15.315 30.4092 15.7559 30.0348 16.4563Z" fill="#FEE749"/>
</g>
<g id="Group_103">
<path id="Vector_99" d="M41.9365 19.7221C41.0405 22.0428 41.1152 24.7841 41.1152 24.7846L41.1156 24.7839L41.1162 24.7822L44.5898 16.0815C44.5896 16.0817 42.8325 17.4013 41.9365 19.7221Z" fill="#E3A500"/>
</g>
<g id="Group_104">
<path id="Vector_100" d="M39.5887 18.834L40.2962 16.0135L39.9536 15.5391L39.5887 18.834Z" fill="#E3A500"/>
</g>
<g id="Group_105">
<path id="Vector_101" d="M39.952 15.5391L40.2946 16.0141L44.5892 16.0826L39.952 15.5391Z" fill="#FAB911"/>
</g>
<g id="Group_106">
<path id="Vector_102" d="M29.0698 18.6251C28.7331 17.8726 28.0715 17.6592 27.4682 17.8421C28.6207 18.5633 28.5113 19.8732 26.4542 20.6964C26.4538 20.6964 26.4536 20.6965 26.4534 20.6965L29.6896 19.7144L28.9249 16.4302C29.0911 17.5918 29.16 18.1224 29.0698 18.6251Z" fill="#FEE749"/>
</g>
<g id="Group_107">
<path id="Vector_103" d="M20.4946 17.8424C19.8913 17.6595 19.2297 17.8729 18.893 18.6254C18.8028 18.1229 18.8715 17.5923 19.0377 16.4315C19.0377 16.4311 19.0377 16.4307 19.0379 16.4304L18.2732 19.7145L21.5093 20.6969C21.5091 20.6969 21.5088 20.6967 21.5086 20.6965C19.4515 19.8735 19.3419 18.5636 20.4946 17.8424Z" fill="#FEE749"/>
</g>
<g id="Group_108">
<path id="Vector_104" d="M26.4544 12.1637C28.5115 12.9867 28.6211 14.2968 27.4684 15.018C28.0717 15.2009 28.7335 14.9874 29.0702 14.235C29.1604 14.7377 29.0915 15.2683 28.9253 16.4298L29.5942 13.5562L29.6898 13.1456L26.4537 12.1635V12.1633V12.1635C26.454 12.1635 26.4542 12.1637 26.4544 12.1637Z" fill="#FAB911"/>
</g>
<g id="Group_109">
<path id="Vector_105" d="M18.893 14.2348C19.2297 14.9873 19.8913 15.2007 20.4946 15.0178C19.3421 14.2966 19.4515 12.9867 21.5088 12.1635C21.5089 12.1635 21.5091 12.1633 21.5093 12.1633L18.2734 13.1455H18.2732L19.0379 16.4296C19.0379 16.4295 19.0379 16.4293 19.0377 16.4289C18.8717 15.2679 18.8028 14.7373 18.893 14.2348Z" fill="#FAB911"/>
</g>
<g id="Group_110">
<path id="Vector_106" d="M36.9097 12.8418L36.9165 12.8327L36.9596 12.7733L36.9097 12.8418L38.8557 12.2109L36.9097 12.8418Z" fill="#05063A"/>
</g>
<g id="Group_111">
<path id="Vector_107" d="M30.6445 9.4287L30.2264 9.56418L30.8843 9.35101L30.6445 9.4287Z" fill="#05063A"/>
</g>
<g id="Group_112">
<path id="Vector_108" d="M22.1418 8.89721L23.9989 6.34949L22.1418 8.89721Z" fill="#05063A"/>
</g>
<g id="Group 922">
<g id="Group_113">
<path id="Vector_109" d="M24.8833 19.099L23.986 19.7545V20.3978L25.4013 19.3639V13.6343L24.8833 13.8991V19.099Z" fill="#C22516"/>
</g>
<g id="Group_114">
<path id="Vector_110" d="M23.9853 19.7546L23.0878 19.0992V13.8993L22.57 13.6343V19.3641L23.9853 20.398V19.7546Z" fill="#C22516"/>
</g>
<g id="Group_115">
<path id="Vector_111" d="M23.0886 19.099L23.986 19.7544L24.8833 19.099V13.8991L23.986 13.2437L23.0886 13.8991V19.099Z" fill="#EB5437"/>
</g>
<g id="Group_116">
<path id="Vector_112" d="M23.9859 13.2435L24.8832 13.8989L25.4012 13.6342L23.986 12.6002L23.9859 13.2435Z" fill="#F4A898"/>
</g>
<g id="Group_117">
<path id="Vector_113" d="M23.986 13.2445V12.6012L22.5708 13.6349L23.0886 13.8999L23.986 13.2445Z" fill="#A35242"/>
</g>
</g>
<g id="Group 923">
<g id="Group_118">
<path id="Vector_114" d="M24.8833 19.099L23.986 19.7545V20.3978L25.4013 19.3639V13.6343L24.8833 13.8991V19.099Z" fill="#C22516"/>
</g>
<g id="Group_119">
<path id="Vector_115" d="M23.9853 19.7546L23.0878 19.0992V13.8993L22.57 13.6343V19.3641L23.9853 20.398V19.7546Z" fill="#C22516"/>
</g>
<g id="Group_120">
<path id="Vector_116" d="M23.0886 19.099L23.986 19.7544L24.8833 19.099V13.8991L23.986 13.2437L23.0886 13.8991V19.099Z" fill="#EB5437"/>
</g>
<g id="Group_121">
<path id="Vector_117" d="M23.9859 13.2435L24.8832 13.8989L25.4012 13.6342L23.986 12.6002L23.9859 13.2435Z" fill="#F4A898"/>
</g>
<g id="Group_122">
<path id="Vector_118" d="M23.986 13.2445V12.6012L22.5708 13.6349L23.0886 13.8999L23.986 13.2445Z" fill="#A35242"/>
</g>
</g>
</g>
<path id="Union_6" opacity="0.2" fill-rule="evenodd" clip-rule="evenodd" d="M24 0L23.6499 0.12228C19.8491 1.44965 15.2152 3.92386 9.87682 7.47605C5.87507 10.139 2.26062 12.9054 0.381315 14.4652L0.000188058 14.7816V15.2759L0 42.3149C0 48.8719 1.23768 54.9264 3.6785 60.3104C5.63531 64.6265 8.36333 68.5186 11.7866 71.8787C17.6166 77.601 23.3892 79.7744 23.6321 79.8641L24 80V0Z" fill="white"/>
</g>
</g>
</svg>
