<svg width="24" height="24" viewBox="0 0 24 24" fill="none" xmlns="http://www.w3.org/2000/svg">
<g id="google 1">
<path id="Vector" d="M19.8767 11.28H12.341V13.464H17.6908C17.4196 16.512 14.8146 17.816 12.3493 17.816C9.20185 17.816 6.44068 15.4 6.44068 12C6.44068 8.72 9.07036 6.184 12.3575 6.184C14.8968 6.184 16.3842 7.76 16.3842 7.76L17.9456 6.176C17.9456 6.176 15.9404 4 12.2753 4C7.6076 4 4 7.84 4 12C4 16.04 7.39394 20 12.3986 20C16.7951 20 20 17.064 20 12.728C20 11.808 19.8767 11.28 19.8767 11.28Z" fill="white"/>
<mask id="mask0_41_160" style="mask-type:alpha" maskUnits="userSpaceOnUse" x="4" y="4" width="16" height="16">
<path id="Vector_2" d="M19.8767 11.28H12.341V13.464H17.6908C17.4196 16.512 14.8146 17.816 12.3493 17.816C9.20185 17.816 6.44068 15.4 6.44068 12C6.44068 8.72 9.07036 6.184 12.3575 6.184C14.8968 6.184 16.3842 7.76 16.3842 7.76L17.9456 6.176C17.9456 6.176 15.9404 4 12.2753 4C7.6076 4 4 7.84 4 12C4 16.04 7.39394 20 12.3986 20C16.7951 20 20 17.064 20 12.728C20 11.808 19.8767 11.28 19.8767 11.28Z" fill="white"/>
</mask>
<g mask="url(#mask0_41_160)">
<path id="Vector_3" d="M21 11.8422C21 11.2011 20.9513 10.5924 20.8677 10H11V13.6601H17.5048C17.3029 14.8611 15.8773 15.8102 15 16.5L15.8338 19H18.5213C20.0949 17.3039 21 14.8043 21 11.8422Z" fill="#4285F4"/>
<path id="Vector_4" d="M12.044 21C14.4775 21 16.5129 20.2214 18 18.9022L15.1009 16.7394C14.2897 17.2585 13.2607 17.5757 12.044 17.5757C9.69313 17.5757 7.71352 15.5546 7 13.5L4 14V16.2276C5.47961 19.0536 8.52146 21 12.044 21Z" fill="#34A853"/>
<path id="Vector_5" d="M7 13.7026C6.81025 13.1673 6.71157 12.5948 6.71157 12C6.71157 11.4052 6.81784 10.8327 7 10.2974V8H3.97913C3.35674 9.20446 3 10.5576 3 12C3 13.4424 3.35674 14.7955 3.97913 16L7 13.7026Z" fill="#F2AE14"/>
<path id="Vector_6" d="M12.0053 6.4243C13.3284 6.4243 15.5657 7.64212 16.5 8.5L19 5.5C17.4527 4.10144 14.4271 3 12.0053 3C8.49973 3 5.4725 4.94645 4 7.7724L6.97491 10C7.685 7.94542 9.66578 6.4243 12.0053 6.4243Z" fill="#E94235"/>
</g>
</g>
</svg>
