<svg width="24" height="24" viewBox="0 0 24 24" fill="none" xmlns="http://www.w3.org/2000/svg">
<g id="icon-lock" clip-path="url(#clip0_41_859)">
<path id="Union" fill-rule="evenodd" clip-rule="evenodd" d="M9.69032 6.88548C10.0801 6.44246 10.7503 6 12.0002 6C13.2502 6 13.9203 6.44246 14.3101 6.88546L14.3101 6.88548C14.6387 7.25897 14.8296 7.78146 14.9229 8.48769C14.986 8.96567 14.9986 9.46664 14.9999 10H9.00057C9.00187 9.46664 9.01441 8.96567 9.07756 8.48768C9.17086 7.78144 9.36174 7.25896 9.69032 6.88548ZM7.00015 10C7.00176 9.42732 7.01726 8.81259 7.09478 8.22574C7.21374 7.32527 7.49156 6.35685 8.18873 5.56441L8.18874 5.5644C8.96892 4.67761 10.1919 4 12.0002 4C13.8086 4 15.0315 4.67761 15.8117 5.56442C16.5089 6.35686 16.7867 7.32527 16.9056 8.22573C16.9832 8.81259 16.9987 9.42732 17.0003 10H17.04C18.1037 10 19 10.8505 19 11.9412V17.1176C19 18.7281 17.6739 20 16.08 20H7.92C6.3261 20 5 18.7281 5 17.1176V11.9412C5 10.8505 5.8963 10 6.96 10H7.00015ZM8.00213 12H7V17.1176C7 17.5864 7.39313 18 7.92 18H16.08C16.6069 18 17 17.5864 17 17.1176V12H15.9983H8.00213Z" fill="url(#paint0_linear_41_859)"/>
</g>
<defs>
<linearGradient id="paint0_linear_41_859" x1="6" y1="10.3333" x2="16.8536" y2="20.2542" gradientUnits="userSpaceOnUse">
<stop offset="0.0001" stop-color="#6FB1FC"/>
<stop offset="0.9999" stop-color="#C86DD7"/>
<stop offset="1" stop-color="#C86DD7"/>
</linearGradient>
<clipPath id="clip0_41_859">
<rect width="24" height="24" fill="white"/>
</clipPath>
</defs>
</svg>
