<svg width="24" height="24" viewBox="0 0 24 24" fill="none" xmlns="http://www.w3.org/2000/svg">
<mask id="path-1-inside-1_82_181" fill="white">
<path fill-rule="evenodd" clip-rule="evenodd" d="M11.561 3.10194C11.8385 2.96602 12.1633 2.96602 12.4408 3.10195L19.4403 6.53052C19.7831 6.69843 20.0005 7.04685 20.0005 7.42857V12C20.0005 13.5281 19.4248 15.5367 17.7126 17.2735C16.7112 18.2892 15.4373 19.1939 14.412 19.8361C13.8947 20.1601 13.4271 20.4257 13.0694 20.6134C12.8918 20.7066 12.7332 20.7848 12.6045 20.8424C12.5416 20.8705 12.4737 20.8992 12.4081 20.9228C12.3757 20.9345 12.3317 20.9494 12.2818 20.9625C12.2495 20.971 12.1395 21 12.0009 21C11.8662 21 11.7569 20.9721 11.7296 20.9651L11.7273 20.9645C11.6815 20.9529 11.6401 20.9397 11.6088 20.9292C11.5448 20.9077 11.4755 20.881 11.4073 20.8532C11.2684 20.7967 11.0921 20.7187 10.8906 20.624C10.4858 20.4339 9.95281 20.1641 9.36957 19.837C8.22125 19.1929 6.79806 18.2824 5.79365 17.2788C3.98899 15.4756 3.99591 13.4951 4.00048 12.187C4.0007 12.123 4.00092 12.0607 4.00092 12V7.42871C4.00092 7.04699 4.21824 6.69842 4.56105 6.53051L11.561 3.10194ZM6.00092 8.05228V12C6.00092 12.04 6.00088 12.0799 6.00085 12.1197C5.99973 13.4259 5.99867 14.6564 7.2073 15.864C8.01516 16.6713 9.24677 17.475 10.3479 18.0926C10.8894 18.3963 11.3797 18.6441 11.741 18.8139C11.8311 18.8562 11.9116 18.8929 11.9815 18.9239C12.0291 18.9 12.0821 18.8728 12.1402 18.8424C12.4496 18.68 12.8732 18.44 13.3503 18.1411C14.3139 17.5376 15.4419 16.728 16.2884 15.8694C17.603 14.5358 18.0005 13.0448 18.0005 12V8.05286L12.0009 5.11352L6.00092 8.05228Z"/>
<path d="M14.6173 9.17482C15.0306 9.4733 15.1237 10.0503 14.8252 10.4636L11.8252 14.6174C11.6583 14.8485 11.3939 14.9896 11.1089 14.9994C10.8239 15.0093 10.5503 14.8869 10.3678 14.6679L9.21397 13.2833C8.88761 12.8916 8.94052 12.3096 9.33216 11.9832C9.72379 11.6569 10.3058 11.7098 10.6322 12.1014L11.0248 12.5725L13.3286 9.38269C13.627 8.96941 14.204 8.87634 14.6173 9.17482Z"/>
</mask>
<path d="M4.00078 6.42871C3.44849 6.42879 3.00084 6.87657 3.00092 7.42886C3.001 7.98114 3.44878 8.42879 4.00106 8.42871L4.00078 6.42871ZM5.00106 8.42857C5.55334 8.42849 6.001 7.98071 6.00092 7.42843C6.00084 6.87614 5.55306 6.42849 5.00078 6.42857L5.00106 8.42857ZM5.00078 6.42857L4.00078 6.42871L4.00106 8.42871L5.00106 8.42857L5.00078 6.42857ZM12.4408 3.10195L13.3206 1.30585L12.4408 3.10195ZM11.561 3.10194L12.4408 4.89806L12.4408 4.89806L11.561 3.10194ZM19.4403 6.53052L20.3201 4.73442V4.73442L19.4403 6.53052ZM17.7126 17.2735L19.1368 18.6776L17.7126 17.2735ZM14.412 19.8361L13.3503 18.1411L13.3503 18.1411L14.412 19.8361ZM13.0694 20.6134L12.1402 18.8424L12.1402 18.8424L13.0694 20.6134ZM12.6045 20.8424L11.7877 19.0168L11.7877 19.0168L12.6045 20.8424ZM12.4081 20.9228L11.7299 19.0413L11.7299 19.0413L12.4081 20.9228ZM12.2818 20.9625L11.7727 19.0284L11.7727 19.0284L12.2818 20.9625ZM11.7296 20.9651L12.2246 19.0273L12.2229 19.0269L11.7296 20.9651ZM11.7273 20.9645L12.2206 19.0263L12.2197 19.0261L11.7273 20.9645ZM11.6088 20.9292L12.2465 19.0336L12.2464 19.0336L11.6088 20.9292ZM11.4073 20.8532L10.6537 22.7058L10.6537 22.7058L11.4073 20.8532ZM10.8906 20.624L10.0401 22.4342L10.0401 22.4342L10.8906 20.624ZM9.36957 19.837L10.3479 18.0926L10.3479 18.0926L9.36957 19.837ZM5.79365 17.2788L4.38 18.6936H4.38L5.79365 17.2788ZM4.00048 12.187L6.00046 12.194V12.194L4.00048 12.187ZM4.56105 6.53051L5.44079 8.32663L4.56105 6.53051ZM6.00092 8.05228L5.12118 6.25616C4.43555 6.59198 4.00092 7.28883 4.00092 8.05228H6.00092ZM6.00085 12.1197L8.00085 12.1215L6.00085 12.1197ZM7.2073 15.864L5.79365 17.2788L7.2073 15.864ZM10.3479 18.0926L9.36957 19.837H9.36957L10.3479 18.0926ZM11.741 18.8139L10.8906 20.624H10.8906L11.741 18.8139ZM11.9815 18.9239L11.1705 20.7521C11.7171 20.9946 12.3436 20.9797 12.8782 20.7116L11.9815 18.9239ZM12.1402 18.8424L13.0694 20.6134L13.0694 20.6134L12.1402 18.8424ZM13.3503 18.1411L12.2887 16.4461L12.2887 16.4461L13.3503 18.1411ZM16.2884 15.8694L17.7126 17.2735L16.2884 15.8694ZM18.0005 8.05286H20.0005C20.0005 7.28949 19.5659 6.59269 18.8804 6.25683L18.0005 8.05286ZM12.0009 5.11352L12.8808 3.31748C12.3258 3.04556 11.6762 3.04552 11.1212 3.31739L12.0009 5.11352ZM14.8252 10.4636L16.4465 11.6346V11.6346L14.8252 10.4636ZM11.8252 14.6174L10.2039 13.4464L11.8252 14.6174ZM10.3678 14.6679L8.83135 15.9482H8.83135L10.3678 14.6679ZM9.21397 13.2833L10.7504 12.0029H10.7504L9.21397 13.2833ZM9.33216 11.9832L8.05178 10.4468L8.05178 10.4468L9.33216 11.9832ZM10.6322 12.1014L12.1686 10.821L10.6322 12.1014ZM11.0248 12.5725L9.48836 13.8529C9.88388 14.3275 10.4766 14.5927 11.094 14.5713C11.7115 14.5499 12.2844 14.2444 12.6462 13.7435L11.0248 12.5725ZM13.3286 9.38269L14.9499 10.5537V10.5537L13.3286 9.38269ZM13.3206 1.30585C12.4881 0.898063 11.5138 0.89805 10.6813 1.30581L12.4408 4.89806C12.1633 5.03398 11.8385 5.03398 11.561 4.89805L13.3206 1.30585ZM20.3201 4.73442L13.3206 1.30585L11.561 4.89805L18.5606 8.32662L20.3201 4.73442ZM22.0005 7.42857C22.0005 6.28342 21.3485 5.23816 20.3201 4.73442L18.5606 8.32662C18.2178 8.15871 18.0005 7.81029 18.0005 7.42857H22.0005ZM19.1368 18.6776C21.2468 16.5374 22.0005 14.0111 22.0005 12H18.0005C18.0005 13.0451 17.6028 14.5361 16.2884 15.8694L19.1368 18.6776ZM15.4736 21.5311C16.5609 20.85 17.9806 19.8504 19.1368 18.6776L16.2884 15.8694C15.4418 16.728 14.3138 17.5377 13.3503 18.1411L15.4736 21.5311ZM13.9987 22.3844C14.4045 22.1715 14.9163 21.8801 15.4736 21.5311L13.3503 18.1411C12.8732 18.44 12.4496 18.68 12.1402 18.8424L13.9987 22.3844ZM13.4213 22.668C13.6009 22.5876 13.7992 22.489 13.9987 22.3844L12.1402 18.8424C11.9844 18.9241 11.8655 18.982 11.7877 19.0168L13.4213 22.668ZM13.0862 22.8044C13.2173 22.7571 13.3354 22.7064 13.4214 22.668L11.7877 19.0168C11.7695 19.0249 11.7551 19.0311 11.7439 19.0357C11.7325 19.0404 11.7281 19.042 11.7299 19.0413L13.0862 22.8044ZM12.7908 22.8967C12.9178 22.8633 13.0217 22.8276 13.0863 22.8044L11.7299 19.0413C11.7304 19.0412 11.7345 19.0397 11.7411 19.0376C11.7476 19.0355 11.7582 19.0322 11.7727 19.0284L12.7908 22.8967ZM12.0009 23C12.4015 23 12.7112 22.9176 12.7908 22.8967L11.7727 19.0284C11.7691 19.0294 11.7811 19.0262 11.796 19.0227C11.8105 19.0194 11.8273 19.0159 11.8462 19.0127C11.8814 19.0067 11.9338 19 12.0009 19V23ZM11.2346 22.9029C11.3082 22.9217 11.6117 23 12.0009 23V19C12.0677 19 12.1185 19.0066 12.1506 19.0119C12.1682 19.0148 12.1842 19.018 12.1984 19.0211C12.2135 19.0245 12.2258 19.0277 12.2246 19.0273L11.2346 22.9029ZM11.2341 22.9028L11.2364 22.9033L12.2229 19.0269L12.2206 19.0263L11.2341 22.9028ZM10.9711 22.8248C11.0289 22.8443 11.1223 22.8744 11.2349 22.903L12.2197 19.0261C12.2313 19.029 12.2391 19.0313 12.2428 19.0325C12.2466 19.0336 12.2482 19.0342 12.2465 19.0336L10.9711 22.8248ZM10.6537 22.7058C10.7409 22.7413 10.8525 22.7849 10.9712 22.8249L12.2464 19.0336C12.2372 19.0305 12.21 19.0206 12.1609 19.0006L10.6537 22.7058ZM10.0401 22.4342C10.2616 22.5382 10.4719 22.6319 10.6537 22.7058L12.1609 19.0007C12.0649 18.9616 11.9226 18.8991 11.741 18.8138L10.0401 22.4342ZM8.39124 21.5814C9.01627 21.9319 9.59192 22.2236 10.0401 22.4342L11.741 18.8139C11.3797 18.6441 10.8894 18.3963 10.3479 18.0926L8.39124 21.5814ZM4.38 18.6936C5.58083 19.8935 7.19542 20.9107 8.39124 21.5814L10.3479 18.0926C9.24707 17.4752 8.01529 16.6714 7.2073 15.864L4.38 18.6936ZM2.00049 12.18C1.99575 13.5359 1.95608 16.2716 4.38 18.6936L7.2073 15.864C6.0219 14.6796 5.99606 13.4544 6.00046 12.194L2.00049 12.18ZM2.00092 12C2.00092 12.0566 2.00071 12.1154 2.00049 12.18L6.00046 12.194C6.00069 12.1307 6.00092 12.0648 6.00092 12H2.00092ZM3.68131 4.73438C2.65258 5.23825 2.00092 6.28386 2.00092 7.42871H6.00092C6.00092 7.81012 5.78389 8.15858 5.44079 8.32663L3.68131 4.73438ZM10.6813 1.30581L3.68131 4.73438L5.44079 8.32663L12.4408 4.89806L10.6813 1.30581ZM8.00085 12.1215C8.00088 12.0818 8.00092 12.041 8.00092 12H4.00092C4.00092 12.039 4.00088 12.078 4.00085 12.118L8.00085 12.1215ZM8.62096 14.4493C8.28544 14.114 8.16121 13.8345 8.09417 13.5578C8.0094 13.208 8.00025 12.8163 8.00085 12.1215L4.00085 12.118C3.99973 13.4273 3.95321 15.4398 5.79365 17.2788L8.62096 14.4493ZM11.3262 16.3482C10.2719 15.7569 9.2321 15.0599 8.62096 14.4493L5.79365 17.2788C6.79821 18.2826 8.22159 19.1931 9.36957 19.837L11.3262 16.3482ZM12.5915 17.0037C12.2736 16.8543 11.8259 16.6284 11.3262 16.3482L9.36957 19.837C9.95281 20.1641 10.4858 20.4339 10.8906 20.624L12.5915 17.0037ZM12.7925 17.0957C12.7372 17.0712 12.6699 17.0405 12.5915 17.0037L10.8906 20.624C10.9923 20.6718 11.086 20.7146 11.1705 20.7521L12.7925 17.0957ZM11.211 17.0713C11.1628 17.0966 11.1207 17.1182 11.0848 17.1362L12.8782 20.7116C12.9375 20.6818 13.0014 20.6491 13.0694 20.6134L11.211 17.0713ZM12.2887 16.4461C11.8516 16.7199 11.4722 16.9343 11.211 17.0713L13.0694 20.6134C13.4271 20.4257 13.8947 20.16 14.412 19.8361L12.2887 16.4461ZM14.8641 14.4653C14.1726 15.1667 13.1905 15.8813 12.2887 16.4461L14.412 19.8361C15.4372 19.1939 16.7112 18.2893 17.7126 17.2735L14.8641 14.4653ZM16.0005 12C16.0005 12.561 15.7816 13.5346 14.8641 14.4653L17.7126 17.2735C19.4245 15.5371 20.0005 13.5286 20.0005 12H16.0005ZM11.121 6.90955L17.1205 9.8489L18.8804 6.25683L12.8808 3.31748L11.121 6.90955ZM6.88065 9.84841L12.8806 6.90964L11.1212 3.31739L5.12118 6.25616L6.88065 9.84841ZM22.0005 12V7.42857H18.0005V12H22.0005ZM2.00092 7.42871V12H6.00092V7.42871H2.00092ZM8.00092 12V8.05228H4.00092V12H8.00092ZM16.0005 8.05286V12H20.0005V8.05286H16.0005ZM16.4465 11.6346C17.3917 10.3258 17.097 8.49866 15.7883 7.55347L13.4463 10.7962C12.9642 10.4479 12.8556 9.77477 13.2038 9.2926L16.4465 11.6346ZM13.4466 15.7884L16.4465 11.6346L13.2038 9.2926L10.2039 13.4464L13.4466 15.7884ZM11.1781 16.9982C12.0806 16.967 12.9179 16.5204 13.4466 15.7884L10.2039 13.4464C10.3986 13.1767 10.7071 13.0122 11.0396 13.0006L11.1781 16.9982ZM8.83135 15.9482C9.40943 16.6419 10.2757 17.0295 11.1781 16.9982L11.0396 13.0006C11.3721 12.9891 11.6913 13.1319 11.9042 13.3875L8.83135 15.9482ZM7.67752 14.5636L8.83135 15.9482L11.9042 13.3875L10.7504 12.0029L7.67752 14.5636ZM8.05178 10.4468C6.8116 11.4803 6.64404 13.3234 7.67753 14.5636L10.7504 12.0029C11.1312 12.4598 11.0694 13.1389 10.6125 13.5197L8.05178 10.4468ZM12.1686 10.821C11.1352 9.58084 9.29198 9.41328 8.05178 10.4468L10.6125 13.5197C10.1556 13.9004 9.47652 13.8387 9.09576 13.3818L12.1686 10.821ZM12.5612 11.2922L12.1686 10.821L9.09576 13.3818L9.48836 13.8529L12.5612 11.2922ZM11.7072 8.21171L9.40344 11.4015L12.6462 13.7435L14.9499 10.5537L11.7072 8.21171ZM15.7883 7.55347C14.4796 6.60827 12.6524 6.90298 11.7072 8.21171L14.9499 10.5537C14.6017 11.0358 13.9285 11.1444 13.4463 10.7962L15.7883 7.55347Z" fill="url(#paint0_linear_82_181)" mask="url(#path-1-inside-1_82_181)"/>
<defs>
<linearGradient id="paint0_linear_82_181" x1="4.29558" y1="3.31035" x2="21.5498" y2="18.6085" gradientUnits="userSpaceOnUse">
<stop stop-color="#D1A04A"/>
<stop offset="0.46875" stop-color="#F2D289"/>
<stop offset="0.979167" stop-color="#D1A04A"/>
</linearGradient>
</defs>
</svg>
