<svg width="24" height="24" viewBox="0 0 24 24" fill="none" xmlns="http://www.w3.org/2000/svg">
<g id="icon-facebook">
<path id="Vector" d="M12 3C7.04999 3 3 7.05723 3 12.0542C3 16.5723 6.294 20.3223 10.596 21V14.6747H8.30999V12.0542H10.596V10.0572C10.596 7.78916 11.937 6.54217 13.998 6.54217C14.979 6.54217 16.005 6.71386 16.005 6.71386V8.94578H14.871C13.755 8.94578 13.404 9.64157 13.404 10.3554V12.0542H15.906L15.501 14.6747H13.404V21C15.5248 20.6637 17.456 19.5773 18.8489 17.9368C20.2419 16.2963 21.0048 14.2099 21 12.0542C21 7.05723 16.95 3 12 3Z" fill="white"/>
</g>
</svg>
